/* XPM */
static char *_520953793951[] = {
/* columns rows colors chars-per-pixel */
"64 64 26 1 ",
"  c #4E4E4E",
". c #515151",
"X c #565656",
"o c #5B5B5B",
"O c gray36",
"+ c gray38",
"@ c #646464",
"# c DimGray",
"$ c gray43",
"% c #717171",
"& c #777777",
"* c gray48",
"= c gray49",
"- c #808080",
"; c gray53",
": c gray54",
"> c #8D8D8D",
", c gray57",
"< c #979797",
"1 c gray60",
"2 c gray62",
"3 c #A2A2A2",
"4 c #A5A5A5",
"5 c #AAAAAA",
"6 c #ACACAC",
"7 c gray69",
/* pixels */
";-==&+oooO@@+&,3:5:--&+X+##%2434331:===@OoooooX%3,3>>>>>;<3432<;",
";=-==@OOO+++456653;=--$O+%%345533432;===$+oooXX.Xo;::>,>345444>:",
";====++O++$6776645>---*%%$%2344533432---=@@+oX..XoO#%>>2344443>:",
";--=%O+@@@:667663>:;-=&#%%33343343331>;==&$+OooXooo+$<143433:,:;",
"---=OO++&4666663:;;:-=XX%333421444542>>:;-%@++++ooO+%1333>>;-;;-",
";:==Oo++;566441>:;;;-*oX%4433;:>>152<,>>;;;%@@+@++@+-334,:;----;",
"-;==#++34554<<>:;:;--%.+,5531:;;;>12>,>>;-:-+@+@@@++@<11>:;=--;-",
"--====144534,:;;----=%XX:4532<:;:>>>>>>>;;;;@oX++@@@$>11<;----;;",
";%=*=133331;;:;=----%oXX55441<>>;;;;-;;;;;;-XXo++@@@@*:1<;-;;-;-",
"&@#@*2222::-=-----=%%XX#55531<<,>:;=---;-;;;XoXo@+@+@@+1<<>;-;-;",
"+@@@+2222:-====--=*%%oXX;3321<,,>>------;;%#XXXX+@@@+@@%-,;-;---",
"@+@@@-111;;-==*==*%#+oXX:>22,,,>,:;;------=OXXoX@@@@+@+@@%=;-;++",
"O+@+@+:1<;;=-===*%%ooXXo=;><>--;;;;-;=--=*oXXXXo@#=#@@@@@@@@X.++",
"+++@@+#211;;==***%%oXXXX---=-;;---;;;----@XooX@24444@@@+++@Ooo+O",
"++++@@+&11:;=**&%%XXXXXX#=------;-;;-----oXXX@454554%@@+@@@@@+@@",
"@@+O+@+@@$-*==%$X.X.oXoO@&--------------+Xo*4444444,--@@@++@@+@@",
"&$-1*@++XoXoXXXXXX.XooO@##***=--==-#*XXoo*3443412<1----@+@@+@+%$",
"11<331$ooXXXoXXoXXoOo+@####*==-=*&oXoXXO545421211:------+@@+@%%%",
"123333-@XXoXoOO+OO+++@###@##%&%&%oXXXXX:5553111<;;-------@@@%$%1",
"175554;OXXoOO+%O@+#O%=###@@#+@oXXXXXXo45522212::;---------$%$%&:",
"76654>=#Xoo+@%<333222>&###+@XoXXXXXX*;5433211:;;:;;;-----==&%$*<",
"677>;==#ooO#3323433332:&$#@+XXXXXXXX;753221::;:;:;;:;;;;::;@%$&>",
"67--=**O+O+<43343343222=*#@+oXXoXXoX+33322:;:;;:;:;;:;;:;::#Oo&*",
"*====&*+O++343333311<2>=*%#@XXXXXo+++>12>;;:;::>>;:;;::;;;*$Oo&&",
"*&*=*%++O++<3333221:;===***ooXXo+++@@@>:;;;;::>>>>>::::::;+oooO&",
"&&***#O++O+:<2212-;;-*=**=*XXXoO@@@@+@+=--;;>>>>>,>>:;::&#oOooo&",
"%*&&+O+OO++=>12<>;=-===*&*OoXXo++@+++@@#=-=:>>>;:>>:>::-OOOOOOo+",
"#$OO+O++++O$&&-%*-*&$***+oXXoX++$+@@@@+@@+-*:::::::::=@%OOO+OOO@",
"O++O+++@&%$@XO.X...oXO.XXXXXo@+@-:;-%@@@+O+X&:;:::=-;#OOO+OO+O+@",
"O+O++O$%&&%&Oo....X...  XoXo+-::>>12&--@@OooOO+&-;@#O++OOO++@##@",
"++O++$&-32&$XXXXoXXXoXXXXXo#&:::,1232;:%$OoO+O@@##+O+OO++O+@#@#+",
"+++OO*3333<33XoXXXXXXXXXX@-::::<22451<>-==*$@@@@@@+OOO+OO+@@###@",
"++++%33443432<-=O+O+OO+OO:::,<112455522>,:--@@@@@@O+O+OO+@@@##+@",
"+++@&233454332:--%@OO+OO+:::<<<22555543,,,---#$@@++O+O@++++@+@+@",
"@@@@2333555422;-;-=#+O+O#%;:<<<124555552>,;----:$@O+O++OO+@@++@@",
"@++$12335522;:;;;-;@O+O++#$=:><<15555552,:-==--::%OOOO+oo+@+-*@+",
"@++%*,2<3;:;;:;----&+O+O+@$$*=><1255453,::-$%-->>OooooooO$++55@+",
"O+++%-;;;;:;;:;----*OOO+@+++$%::::12211>;:=$$---*+oooooO@345553@",
"@OOO#---;:;;:;----*#++@+@+@@$##::;>11<:;:-%#$=*=OOOooO+=5555555;",
"$X.o+--=;;-=---:-*&+OO@+@@@+@@##=-;;:;;;--=&$=$OOooo+#,65555552-",
"XXXXOO-=-------==*+O+++@+@@@+@#O@*&=-------&$$ooooO+@476554541-*",
"....XoO*-----=*=*OOOO++@@@+@###OO@#%%*----*&$ooooo++477555221;--",
"o..XXXoO*==-==*=@OO+O+@@@+@@###Oooo#%&&-=-=*+Oooo++776554221,;;&",
".XXXXooo@+&%=$#@O++O+@@+$$##$###ooooo#%%$&OooooO@@,765522<,,;--=",
"X..XooooXXo..oooO+O@++@$33=:---;@Oooo..oooooooO@+<6764311,,:-;==",
"o.XXooooXX.XX.ooOO@+@#<,44331;--&$#OoX.XooooO+@@-577431<,<>---=*",
"XXXoO+OOoXXXXXooOO+@+;2344677-;--=%#oOXOooO@@+@,,66551<,,,,;-==O",
"XXX++@@++XXooOooo++++;3347667,;;;-&*%$++++@@@@#:<4552,>:;:;:-**O",
"oXo++@1>,<>;@Oooooo++%;333563>,,:>2222##@++@@+,,<555<;;;;----*Oo",
"Xo+%133111<<:=@oooooo$=:2<211,,>,2554211$@@@@%-,14551;;-;;;=*OoX",
"O+@;22221211>;*Oooooo#*=;><<>,,,,24552221+@++@+,,,><>;;;;;===OXo",
"@@22232211<<>:;#OXooooo@&;,>,,>>,13212211%#@+@$=,>;;;;----=&Oooo",
"#233333111>,,::&@OOooooo+##&%&&==,,221,<:-*+@@@+=-=;=;;;=-*@Ooo+",
"@23334311,,,>;;=*@+oooXXXo@##%%&&&;;>::;;==&@@+Oo%****--=**oOOO@",
"%23333311,,>>:-=&##+oXXoXXo@@@%&&%%-;--;-==&%+ooo$**====&=#oOO#@",
"#&22121111,>>---&&%#@@OXoXXXoO@#+#@&&=---==%&@oooo#$**=*oooOO@#@",
"##*:;>>1111,:---&&&%&%+XoXXoXo.X..o@&*====*%&+OOOO+#o+oOooOoO@@#",
"@@#&&*>>>11>---=%&%&&=&&+XXXoo....oOOO&&%&&&&@+@@@@@OoooooO++@@@",
"@##**&*;>:>;---=*&&&**&*oXOOooOOoOOOoo+#%&&%#@++@@@@@@@++@+@@+#@",
"@#@*&&&&**=----=&&&&&&&%XoOOOOOOOOOOoooo+o##+@@@@#####@@+@@+@@#$",
";-=*&@+*%&*=-=-*&&*&&*$XXO@#@$#$-*OooOOoooOO@@+@=%;>%%@@@++@+@-;",
"--;=&XXXX@%%&*@&&&#$XOXXo@###$1<;--*OOooooOO++@#3332>>$@@@@$----",
"-;;=*XXXXXXX.oXXXX+XoXXoo###@323,---=OooooooO++>4333>,>@+@+*-;;-",
"-:-==ooX.XXXXX.X+XXXoXXXX#@#$2333<;--=+ooooOOO+34433>>:*=-4131>-"
};
