/* XPM */
static char *_520953788202[] = {
/* columns rows colors chars-per-pixel */
"64 64 88 1 ",
"  c #435336",
". c #465638",
"X c #47583A",
"o c #495B3D",
"O c #556624",
"+ c #5A6C27",
"@ c #5C6F28",
"# c #5F7129",
"$ c #5B633F",
"% c #61722B",
"& c #646836",
"* c #4D5E41",
"= c #4F5948",
"- c #515F46",
"; c #525D4B",
": c #595F55",
"> c #4F6144",
", c #526346",
"< c #5B6340",
"1 c #55644A",
"2 c #59664E",
"3 c #57684A",
"4 c #596A4C",
"5 c #5B6653",
"6 c #5D6B53",
"7 c #5D635A",
"8 c #5F6A58",
"9 c #616A47",
"0 c #667346",
"q c #6F7C48",
"w c #717F4B",
"e c #626D55",
"r c #646D5D",
"t c #696D5E",
"y c #637156",
"u c #6A7154",
"i c #65715C",
"p c #6D755C",
"a c #71775F",
"s c #747B5D",
"d c #636463",
"f c #666E61",
"g c #696F64",
"h c #6C6D6B",
"j c #6B7164",
"k c #6E736B",
"l c #707667",
"z c #747B63",
"x c #71746E",
"c c #747B6E",
"v c #7A7D6E",
"b c #747673",
"n c #767974",
"m c #797C75",
"M c #7D7E7C",
"N c #75824F",
"B c #768352",
"V c #798457",
"C c #7A8658",
"Z c #7A8164",
"A c #7D846A",
"S c #7C8274",
"D c #7E837A",
"F c #81876B",
"G c #83896F",
"H c #818577",
"J c #81847C",
"K c #85897D",
"L c #888B7E",
"P c #848484",
"I c #878985",
"U c #8A8C85",
"Y c #8C8C8C",
"T c #8A9183",
"R c #8E928A",
"E c #92948C",
"W c #939393",
"Q c #969895",
"! c #999A95",
"~ c #9B9B9B",
"^ c #9FA499",
"/ c #A1A29E",
"( c #A3A3A3",
") c #A8A8A7",
"_ c #AAAAAA",
"` c #B0B0B0",
"' c #B8B8B7",
"] c #BFBFBF",
/* pixels */
"`PMMMM=:mmxd8DWQYMMPMMbdhhxmY(_((~WPMMbbxbxhxbD)___)YYPM(())]]``",
"PMMMMM:kbx;JI`_(QWPPPMb=xgkS~)__(((WPPMdxbxbg8jP_)YYPPhP(((]]``(",
"MMMMn;:kx;<bU'_(~~~PMMb*dy%T]_W()__~WYMgfhxxr58j8PMkgDn())]]`(((",
"MYYMb=:::<bME`__(~YPMM=hy#y^)~PYW_((~YYMMfkk2188f8>5DM(()]``((PP",
"YPYPn=;2tuME___(QIIPMM*.3ypR~EPPY(]`~YYYPPbf,11363>fW/((((YWYYWM",
"PYPY==;PLMME__/(YIPYPx3yKpp~YPPYY(`]~PYYPIf1>,,,3>2SD^//QYPMPPPM",
"YYYx==(_]MMK_~~IPIbbPx>yKRyRIPYPPY~YYYYYYIP,*X>>331bDI!~WYWYMMbM",
"YPxx=M_()EK~~~PbxPbbxb,kT~SUIIPPPPIPPYYYYYP,*XX*,,,>DTQ^(WYMPMMb",
"IJP>m(_^~_~~YPbxnbbcy>yDY__YWPPPPYnbnPYUPWmr.XX*,31,oSRQ(~DnmnnI",
"MM*1k)((~^PPPbxxxnkkyX8D~___~YWWWYMbbMPPPPSS.o*X>3,,,nDT~~YmnMIY",
"Pgkkgb~~/PPMhbMPxbky4XyD~_(~W~~WPPMbbbMIYRn,..oo,,3rjfDDMDDYnMnn",
"fhxkjkW~/IMMbxMxkkjy>X2bW_((~WWYMxbbbbbMYYmX..o*,6fkkkjnDWYWQYnM",
"bbbkkkb~~~IxxhMPxki4oookY(~(WYPMMbbMnMbbmb1..oX1knnmcjkikx8fMhbb",
"bbxhkjfkQ~IPxxMMxky>oooinW~YPMMPMbMbMbbbb,..o,nvKupuZ0pjggf77dbn",
"nMxbbkhgbWKIPbbh6yoXooo8bYYMnPPMMMbbbbbb1X*,NuK)Duuupufkckhghxnn",
"bMrzzkgr8*KSMn7hXXXX>ooobnMbMMMPPMnxbx51X#PeupS)^KSpu4bDnxbxbnMn",
"~~KuuS25=*XoooXXXXX>>**>>5xxMPPMMJxx,oXXC__PWM__~Q~b<tMMMMbbfmmD",
"~QEvpSbX*XX*>oX*@@OX>>>>>>xxxMMMMMx,.,%u_(])))~~!WMMdPMPPMMnbnfJ",
"Q)`zpJ(k*X*>>>+@BqN+>>>34>o>xxxb11..o%pp_]_(~~~YWPMPMMMMPPPmmMQ~",
")``PHKI8**>,%NNyySBByP4442oo1xx>....,VaE]__~WPPMPPMMPPMPMPWMDg(~",
"`___UYxgMX4mAApKHSuuS(RWB@@+Xoooooo3mpE]](~WYMMMPPPYYPPMPYIM=m~`",
"``_~WUMMJXPYSaMK]`KuH_~~YZ@2oooooo1S_]]](~QYMMPPPIPYYYPPMmMm8m)`",
"__/WIJjj=6(R`EI/_`~M`~WWbbP>3o>o44o~]]]_~~YMPYYYYYPPYPYYMMmW8nP)",
"_~~YMMjxXJ((`_/(`~~~YWYMnnbPoo>34-XP]_)~~YMPPYWWWYYPYYWYYMWY;bM~",
"~~PPmbm=>m~`_(((~/YPPPMbMMMMPXo>,,3,P~_~YPPIYYYYYYWYYYYIYS~PgxbY",
"~PMMbm**>3~((((QYYMPMMbMMMMMMXoX,,,,omYYMMIIWYYYIYYYWYYYISP18xnM",
"nnbnm*>o>>PKDTWYPPPPmMmmMMMboo*,1,,,,,YYMYIYYIPPIYYYYYYW~m>>dxxP",
"MnDmoo>,3>1PKKDKPPMMMMmMMMM XX,,e4%%#1oPMPYYYPPIIYYYYYWW* >5fxxh",
"MMn=*>yyyyyy36mKKYYbbbbbM:*XX,5DNNNqNn,,6PWWWWPDPPIYW~PX>,>8bmmb",
"bxh7>1iigcyy...166nMnM6. =X*8kDDGNuunb661oyp8IYSMMMmSXXX>>5hbmnb",
"Mbbh8yDWWRzA#XXXXoo,,oXX *2MQQPM~SvKDQDPjr1>3466,,,.,>>>>2hnbbbn",
"bMbbiMR~(^Ipucy1*oXooXoo*5MMDDM~/(E/(~~JDsz##>o,3666>,>>,kbnbbbn",
"xbbkM~((_`EJKUHmZr$,$>>>MMIQ~P~(_)(_)(~~IbAsttb6bmmvS4>,366ikkbn",
"xbbbY((]]'~U!!WPZsj,>,,4MP~W~~~)______)~WWbFfnbtHILHcS4>3,6xbnbn",
"xbbM((]]__(Y~~(YZstm>>$64DMDYWQ(_______(~WYdhMbmWEUUISASo>jxbxbb",
"bxbP~(_)_)))~/QYztPm>>,,46SmDMW~()_____)~WPMbmnvDUUEKmm6>4knPPMP",
"MggMYQ~~))(/~YPMtMPAN ,oX664eMD!~(_____(~PYPbnnASKScp6>o>8bMM~__",
"Mx5bPWQ~~WWYYPPMMUYAqX,,oX6e4eMP~Q((_((~YPMbxbbxlc4oX.o*kkS~())~",
"MM,rMYYWYPPPPMPPIYMMXo>>>>oX.6yDPPW~~~~PIMbhbMnkg,...#ySnS~)))~W",
"PM2*MMMPMPPMMPPPWPMjX>,3,,$o..6inMPY~~PYPbMbbbbx1...#su!^__)_)WP",
"MM8XXMMmMmMPMPPWPbbX,*>,,,,,-o,*6fmPPIYMbbbbbbk1...+AAM~(___~~PP",
"PM5**XmMMMMMIYYYbgoo,$,,1,1,449o.,mMMMbbbbbbnx1...+wuzU(_((~~WPM",
"Mr5*XXXMJMMMMxxxb*o-,,,1,,324444o>oSbbbbbbrtS,..1<wFzH~(((~~IMPM",
"n812X*XXmMMDbxxb..*,,,,wnnwwNx44oo..664bbbr1.Xo*@bRvLU(~~~~WPPPM",
"Mf85***ooXoMMM>X.,,,,,suSKuufPPPn>ooXX9e4e***o,@BVE!W)~~YWWYPPMM",
"nk6***>*oX.XXXX.>,,,,Puu((KA~PPMPt+XXX..,oo$o>,wBE)_)(~YWWYPPMMP",
"ngeXX,X>oXoooo**,,1,((SuE____~PPbvuett...oo,3,mAuU__(~YYYWPPMMMM",
"hrii,,NnmANmo>$oo,,b/((UE)_`__~PPbuup~nmoo3,,nmuL_``~WYPPWPYWMMM",
"hxdbuuS~~mGGwMo$>o$bDM(~~!(_~~~YW~JpJ__~1,,,,nEm)__~~PPPPPYYPxPb",
"hhdwu&~~!~mGGGPoooo>MMMP((_/~~YYQ__P))__m,1,1kYW_)_)WPPPPPWWhxfg",
"dbMMM~~~~~SGMMPP>oooXPxbQ~Q~QYYY~~___~~~)~n1,4IRW~()WPPPPPWMP1xb",
";m~~QQ~~~~vGM~Gz4o$>..bxbQQ~WYWW~~W_~~~~~_nn16mYYW~(WPPPPWPMM2bx",
"P(((((()!YYMWIjz#4oo**.Jb23bYYrrPQY~Y~~Q!Pbb,,rPPIWWPPYPMMMx4ifb",
"(/(((_(((!WYIIjwq34oX*..3131fffrfP~IWYQ~PPb44,o6MMMPPYPPPMxxfrnJ",
"(/((((~(((!YYYasSb431ooo*=kx3irir4ffPPPPPMM143o>-JbxbbMMMxm*2ixP",
"(()Q((Q~(((!YYbsAbnYM+ooXXX*>>fr41rffPPPMMMMri4oo*xxbMMMbxX>1gbb",
";MW~YYYQ!(((WbbvPYnbqqAkooo*o.143..1rrJMJMfrfi3>>,>*nxPm=X>*1cbg",
"5;bbYYYY~W((~bbbY~YbAqbnMooooo...XoorrgMDfffr3o*>4*>***XX*>5fbbh",
"r7;xMbbnY~~~bbYYQ~YbbAffig*5e,,*****o1318fii4*,,,1>>*,>,>>8gcbxk",
"Mj87hxbbbY~bbbbMYYmbbbfjji*rj2118e5555185rf1**,1nmnn,,335rkxggbM",
"IPMM:6-bMnMmbbMYbnbnj86ff88rggjmMMxkre85853r,45n((/(YPbbnbkkcWYP",
"PIYPM:5;:bbbbbbbbnbgerrkgfhgbY(~IMMMkjrg88ii8fM(((`/YYPbcnnI(((Y",
"PMPPMbe::eeeekPPDr28fjxghbhhP(((~YPMMbxkhkxgjb~(```((PPMnyP((`(Y",
"YPYPMn:7:7;:;:tg88fMDnMdhhhhI(_(~~YMMbkMnnxkkm~```((((YIMP((]``)"
};
