/* XPM */
static char *_521036295179[] = {
/* columns rows colors chars-per-pixel */
"64 64 104 2 ",
"   c #494949",
".  c gray29",
"X  c gray30",
"o  c gray31",
"O  c #505050",
"+  c #515151",
"@  c gray32",
"#  c #555555",
"$  c gray34",
"%  c #585858",
"&  c gray35",
"*  c #5B5B5B",
"=  c gray36",
"-  c #5D5D5D",
";  c gray37",
":  c #5F5F5F",
">  c gray38",
",  c #646464",
"<  c gray40",
"1  c #676767",
"2  c #686868",
"3  c DimGray",
"4  c #6C6C6C",
"5  c #6D6D6D",
"6  c #6F6F6F",
"7  c gray44",
"8  c #717171",
"9  c #727272",
"0  c #747474",
"q  c gray46",
"w  c #777777",
"e  c gray47",
"r  c gray48",
"t  c #7B7B7B",
"y  c gray49",
"u  c gray50",
"i  c #69B6DE",
"p  c #6BB9E2",
"a  c #6CBCE5",
"s  c #6EBEE8",
"d  c #52D1D9",
"f  c #53D4DC",
"g  c #54D7DF",
"h  c #5ECDE6",
"j  c #56DAE2",
"k  c #58DFE8",
"l  c #6FC1EB",
"z  c #70C3EE",
"x  c #60D2EC",
"c  c #72C6F2",
"v  c #74C9F5",
"b  c #75CBF8",
"n  c #77CEFB",
"m  c #62D6F0",
"M  c #64DBF6",
"N  c #66DEF9",
"B  c #59E3EC",
"V  c #5BE9F2",
"C  c #5DECF5",
"Z  c #808080",
"A  c #818181",
"S  c gray51",
"D  c #838383",
"F  c #848484",
"G  c gray52",
"H  c #868686",
"J  c gray53",
"K  c #888888",
"L  c gray54",
"P  c gray55",
"I  c #8E8E8E",
"U  c gray56",
"Y  c #909090",
"T  c gray57",
"R  c gray58",
"E  c #959595",
"W  c #989898",
"Q  c #9B9B9B",
"!  c gray61",
"~  c gray62",
"^  c #9F9F9F",
"/  c #A0A0A0",
"(  c gray63",
")  c gray64",
"_  c #A5A5A5",
"`  c gray65",
"'  c #AAAAAA",
"]  c gray68",
"[  c #B8D5EB",
"{  c #BAD8EE",
"}  c #BCDBF1",
"|  c #BFDEF5",
" . c #C2E1F8",
".. c #C4E4FB",
"X. c #C7E7FE",
"o. c #E2E2E2",
"O. c #E6E6E6",
"+. c #ECECEC",
"@. c #EFEFEF",
"#. c gray95",
"$. c #F6F6F6",
"%. c #F9F9F9",
"&. c gray99",
"*. c white",
/* pixels */
"u u u 9 9 9 0 6 > , > , 6 6 9 0 t t y F I I U U U U U U I U H t y u 0 6 6 6 9 t u u y t 0 0 0 0 0 0 0 t w e e 0 6 6 9 0 0 0 t u ",
"u u u t u 0 0 9 6 6 , > > > 9 0 e t t y D P U U U U U U I I u 0 t t 0 , > , 0 u u u t 0 0 0 0 0 0 6 0 0 7 0 9 4 , : 4 6 w t t D ",
"u u u t 9 0 0 0 9 9 9 6 6 6 9 0 0 e t t t u D I I I U I F y 0 t u 9 > > > 6 D u u u u t 0 0 0 0 0 9 4 2 4 0 6 4 , , , , 6 0 t u ",
"t u u u u t t 0 0 0 0 0 9 t u u t t w 0 t t y u D F D u u t 0 t t 4 , , 4 t I I J F J D F w 0 0 7 4 , > 6 0 6 4 6 , , 6 6 0 0 t ",
"9 u t 0 t t t 0 t t u D D L H D D F D u u u u D F F F H D t w e 0 7 6 6 9 t H L U U U U U J D F 4 > , , 9 t t t 7 4 7 t t t t 0 ",
"9 6 9 , 9 t u t u u H I I L L H H H u D D J P I I I P P I D u 0 0 t 0 0 w H U I U U U U U U U U u 4 > , 0 t y u t e 0 0 0 0 0 t ",
"u 9 > > > 0 u u u u u H I I I I 2 , 2 L I J L L H U U U I U U H u w 0 w H U U U U U U U U U U U U F 4 > 6 0 t u u u t 0 0 0 t 0 ",
"9 6 > , 9 u u t t t u D H D H 2 { z s = U U U U I U L U I I U U I D u H I U U U U U J H J U U U 1 2 * $ # # t D H J u t 0 0 0 0 ",
"t t 2 6 0 u 0 6 6 9 t u t 9 & @.X.X.v z 9 H U U D D D F D U U U I U U U F D F I J J u u u J H , @.#.{ { z s % J U U L u t t t 0 ",
"u 0 6 , 9 0 6 , 6 9 0 0 9 # O. .X.X.n b g ( I H 0 0 0 0 0 F U U U U U U U F t u u u t u u u = [ ..X.X.n n n k * U J u u u u u y ",
"t 9 , , , 9 , , > 6 9 0 0 0 + l b n n V j _ t 0 0 0 0 0 0 & = > 2 2 J J U U u 0 t t 0 t u D = [ ..X.n n n V v p 2 D u u u u u t ",
"t 0 2 > 9 t 2 9 6 9 0 0 0 0 t I a z k j L , 4 9 0 0 0 # # a z z c s & J U U u 0 t t 0 0 t t t 0 [ | n n V B g ' H t t t t u u u ",
"u t t t t D H I H u t t 0 t u u ( W Y E > , , 9 9 t * @.$. .n n X...[ $ J F w 0 0 t 0 0 0 0 0 0 , D g B j ) ' U D 0 0 0 0 t u u ",
"t u u H H L I I I H D t t u u u u 0 > , , , > , 6 & O.%.X.X.n n n X.X.[ Y t 0 0 0 0 0 0 w u w 0 0 0 U E R w J U u 0 t 0 0 0 t y ",
"0 0 D L Y I Y I I I H u 9 t u u u t 0 0 6 : , > 9 u I { X.X.X.n n n X.x ^ t 0 0 t 0 0 w H U u w D F w 0 0 0 w u w 0 0 0 0 0 0 t ",
"0 t D I I Y I Y I Y H u 0 9 t t u t t t 0 6 > 6 t u t R {  .X.X.n n M g ^ u t w u D 0 H I U D J I U H w 0 0 0 0 0 0 w u w 0 0 0 ",
"t t u D I Y I Y I Y I H t 9 0 0 0 0 0 t 0 9 6 9 t t 0 t I {  .N N N j Q u H J D U U J L U U U U U U U H F F D t 0 0 H U D 4 6 0 ",
"0 u u D H I Y I Y I Y I D 9 0 t t t 0 0 0 0 6 6 6 6 6 6 6 U x k k j E 0 D U U U U U I U U U U U U U U I U U I D 6 t U U t 1 , 4 ",
"9 0 t u D H H H I I I I D 0 0 0 0 t t t 0 0 6 > > , > > > 6 F E E E 0 0 w D U U U U Y U U U U U U U U U U U J # , t I U 0 1 > 2 ",
"0 u t t t t t D L I Y L 0 0 0 0 0 0 0 0 u 0 + o . . . o 6 6 6 6 0 0 0 0 0 w H I U J > 4 2 2 2 U H F D J U J # i . # I J 0 , 2 0 ",
"t t 0 0 9 9 0 u 0 u u 0 0 t 9 9 9 t 0 0 t + @.#.{ } } x o : > 6 0 0 t t t 9 6 0 u = @.#.} } [ 6 w 0 0 0 u % X.n i U 0 0 t 0 w u ",
"0 0 0 t u 9 9 6 6 9 0 0 0 t 0 t u u u 0 # @.&...X.X.X...x o 4 6 0 0 t t 0 9 > , # @.&.X.X.X.X.[ > t t 0 # i n C L 1 > > 0 u t t ",
"0 0 9 0 9 9 9 6 > 9 u t u t D u u u & & #.&.X...X.X.X.X.c z . 6 t t u 0 > , > . +.&.X.X.n n X.| o 9 0 t u L ~ Y 6 4 9 0 t t 0 t ",
"t t D 0 6 > 6 9 9 t u D = = = & = & @.$.&.X.X.X.X.X.X.n n v x o u u u w 6 , > o #.X.X.n n n n  .x , u D U I I H 7 9 0 0 0 t t 0 ",
"t u I D 9 6 9 D D u u = o.#.#.$.#.%...X.n n ..X.X.X.n n n n M j 2 L H F t 7 6 $ { X.n n n n n N j ' U U U U I H 4 > > , , 0 t t ",
"u u t 9 9 t H I H H D u 0 @.&.&.&.X.X.n n n n n X.n n n n N C k W U U I F u t = | n n n n n N B ' U U U U U U U u 6 0 2 > , 0 t ",
"D t , 6 9 H I Y I I H u u 9 @.$...X.n n n n n n N N N N N C V j ) J F J D u : @.b n n n n N V j ' U U U U U U U U J U u 2 , 1 t ",
"0 6 2 2 t I Y I I I H u u u , 9 [ z z z x x M N C V B B k k j ~ u u t u y * o.{ z z z z x B g ~ D U U U U U U U U U U U u > , 0 ",
"9 6 6 9 u H H H H H u t 0 0 0 u , P E E Y I j B B j ' ' ) W E 0 t t 0 t 0 9 D L U ! E E Q Q Q 0 w u u u D J U I H D F D t 0 0 0 ",
"t 9 9 u u u t t u u u u t t 0 0 H Z 0 0 t t Y W / ~ H U u 0 0 0 0 6 6 9 0 4 > : 6 0 0 0 0 0 0 0 t 0 0 0 0 u U D y 0 0 0 0 t u u ",
"t t t u u u # # + t u u 0 0 t H I D 0 9 0 0 0 0 0 0 w u w 0 t 0 t 6 > 4 w 0 , > 4 0 t t t 0 0 0 0 0 w D w w u w 0 0 0 t t u u y ",
"u u u u = = [ } [ 9 > > u u 0 D I Y H t 0 0 0 0 0 0 0 0 0 0 0 0 0 6 . . # # . + 9 0 0 0 0 0 w u w 0 F I u D H F y t y y u t y y ",
"u F H , +.$...X.n c z a ' U t t H U U H w 0 0 0 0 0 0 t t t t u & % @.#.#.$.} h + 0 H u D D L I H D K I H Y I Y L 0 0 D 0 0 t Z ",
"H L 1 [ ..X.X.n n n v s ( u 2 w I U U U H u t t 0 0 0 0 u u u : [ | &.&.&.&.....x & I H I I I I I Y Y I Y I Y I I L L Y H D D K ",
"I I , [ ..X.n n n V k ' D 6 > 4 0 0 u I I D 0 0 t t t t u u = { &.&.&.X.X.X.X.X.M j = I I I I I I I I Y I Y I Y Y I Y I I Y I I ",
"U H u W [ c n v B j ' J U u 4 > , , t I I D t 0 t u u u u = { X.&.&.X.X.X.X.X.n N V k 6 H D F D H I H L Y I Y I I Y I Y Y I Y I ",
"D u t t Q W g j Q 0 ) u u w 9 4 > , 6 u F 0 0 0 0 0 t t * @.&.&.X.X.X.X.n n n N C C V j W 0 0 0 t u t D I I I Y Y I Y I I I H F ",
"u u t 0 0 0 E 4 $ p + 0 0 0 0 6 , 4 9 0 0 0 0 0 0 0 0 # +.&.X.X.X.X.X.n n n N C C C V j E 0 t t t 9 0 0 H D D L I Y I I Y L t u ",
"u u u t t 0 0 # [ c g E 0 0 0 9 6 9 0 0 0 0 0 0 0 0 0 # [ ..X.X.n n n n N N C C V V k E 0 0 0 0 0 t t t t 0 0 0 L I H D D Z u u ",
"u u u u u t # i z j Q u w 0 t t & # # # 0 0 w u H 0 0 0 I [ } z c v n N C V B B B j E 0 0 0 0 0 0 0 0 0 9 t 0 0 D I L t 9 t u u ",
"u u u u u u t ( ' ' L I u 0 0 # # [ z a + 0 H U U H w 0 0 E E W Y h x B B j R R E E 0 w H D D D D F t 0 0 0 t t D H D u t u u u ",
"u u u u u u u F J I I I H u w # [ ..n N z & U U U U H u w 0 0 6 6 I L H U E t w u u u J I Y I I U U u 0 0 t t u u u u u u u u u ",
"t t t t u u u u u L U U U U u & z n n n v p u I U U U I u 0 0 6 > > > , 6 0 0 u U U U U Y I I Y U U K D u u Z K u u u u u u t 9 ",
"6 1 6 9 t u u u u u L I U U L * a n N v z ) ' I U U U H D t 0 6 6 4 9 t t D D H U U U U Y , 2 2 2 2 1 1 K K J U H H H H Z t 0 , ",
"4 , , 4 6 t u u u u u H H J U I 0 z v c ~ ~ H H H H H D u u t t u D U U U U U U U U L > , @.$.#.{ | x j * U U U I Y I Y u 6 > 6 ",
"4 , , 1 6 0 6 9 t u u u t D U I u 9 s a W D u u u u u u u t u u H J U U U U U U I L = @.$.&.&.X.X.n N V k * U U Y I Y I I t 9 6 ",
"6 > > , 9 9 : > 9 u D t 0 w D u 0 0 9 W W t u u u u u u t 0 0 D U U U U U I H , > = @.&.&.&.X.X.n n N C V B & Y I Y I Y I Y t 9 ",
"6 , > 4 9 6 > 4 9 t t t 0 0 0 0 0 0 0 0 0 0 t t t t t t 0 0 # * , 1 2 2 2 6 1 @.#.$.&.&.&.X.n n n n n N C V j # L I Y I Y I H t ",
"w 0 6 6 0 9 6 6 0 0 0 0 0 0 0 0 0 0 t 0 0 0 0 0 t 0 0 0 0 # o.{ } } #.#.#.$.&.&.&.X.X.X.n n n n n n n n N C V g 1 F F K H H F F ",
"u t 0 t t t 0 0 0 0 t t t 0 # * # # 0 0 0 0 0 0 0 0 0 t t 0 6 @.X.X.X.&.&.&.&.&.X.X.X.n n n n n n n n N C C C B + 0 t t t t u Z ",
"u t u t 9 0 0 t 0 0 0 0 0 # +.#.} [ o # 0 0 0 0 0 0 0 0 0 t 0 6 { ..X.X.&.&.&.&.&.X.n n n n n n N N N C C C C V f e 0 0 0 0 w u ",
"H F u w D D u 0 t t 0 w * @.&.X.X...| { o + 9 0 t t 0 0 0 0 0 0 6 { X.X.X.&.&.X.n n n n n n n N V B k B k k k g ! 0 0 0 0 u D F ",
"I D u u U U F 0 0 0 u > O.&.X.X.X.n n v c g u t u u t t t t 0 0 0 6 { ..n n n n N N N N n n M B g ^ W Q Q Q Q R 0 0 t u H U U U ",
"I I J H I U I F u D U I * @...X.n n n n V j E u u u u u u t 0 0 0 0 6 a c v n N C C C C N v x W ~ u u u u u u t t u F J U U U U ",
"F F D D H D U U U U I D D t z v n n n V j W t u u u D u t 0 0 0 0 0 t t ] h x V C C C V B x R t u u u u u D u D J J U I U U U U ",
"u D D u u H U U U U D w w F u a z c V B W t t u t t t t 0 0 0 0 0 0 t u D _ ] g k k B j ( ~ Z u u u u u t t t F U U U U U U U J ",
"u u u u u F H H u u w 0 0 w u I H Y B k R 0 0 t t 0 0 0 t t t 0 0 0 0 u I Y I ] ' ) _ ' U U U J D u u t 0 0 0 w u D P I I P J Z ",
"u u u u u u u u u 0 0 0 0 0 0 0 0 t I d R 0 0 0 0 0 0 t 0 0 0 0 0 0 0 u I I L L J U U U U U U I F u t t t t 0 0 0 t D L J u u u ",
"u u t u u u u u u t t t t t t 0 9 9 0 ( 0 0 w D D 0 0 0 0 0 9 9 t t t Z H H I I U U L J U U U H t 0 0 0 0 0 0 0 0 0 t Z u u u u ",
"u t 0 t t t t u u t t u t t 0 9 6 6 9 0 F D H U I H D H 0 0 t t u u Z u u D H H U U U I U U J u 0 0 0 0 0 0 0 t t t t Z u u u u ",
"t t t 0 w 0 0 t t 0 0 t 0 0 t 6 , , , 9 Y I Y I Y I Y I H u u u u u u u u u u D H J H H u F u u t t t 0 0 0 0 0 0 0 t u u Z u u ",
"0 0 0 0 0 0 0 0 0 0 t t t 0 0 6 , 2 9 F I Y I Y I Y I L H H D u u u u u u t t u u u u u t 0 t t 0 0 0 0 0 0 0 0 t 0 t t t t t t ",
"0 0 0 0 0 9 6 6 6 6 6 0 0 0 0 9 9 0 Y I Y I Y I Y I Y I I I H H D u u u t 0 9 t u u u u t 0 0 0 0 0 0 0 t t t t t t t 0 0 0 0 0 ",
"t t 0 0 0 6 > > > > 6 0 0 0 0 0 0 D I Y I Y I Y I Y I Y I I I I H u D t 0 0 0 0 t u u t 0 0 0 0 0 t t t u u Z D t 0 0 0 0 t t 0 "
};
