/* XPM */
static char *_521036743086[] = {
/* columns rows colors chars-per-pixel */
"64 64 105 2 ",
"   c #2D0808",
".  c #330E0E",
"X  c #3C0808",
"o  c #361212",
"O  c #3C1515",
"+  c #331A1A",
"@  c #3C1C1C",
"#  c #3E2020",
"$  c #440B0B",
"%  c #4A0909",
"&  c #500808",
"*  c #5D0909",
"=  c #421515",
"-  c #4B1515",
";  c #421E1E",
":  c #4B1A1A",
">  c #531313",
",  c #5C1313",
"<  c #541C1C",
"1  c #5D1B1B",
"2  c #670808",
"3  c #6B0A0A",
"4  c #730A0A",
"5  c #7B0C0C",
"6  c #641212",
"7  c #6B1313",
"8  c #621C1C",
"9  c #6B1C1C",
"0  c #751212",
"q  c #7D1212",
"w  c #741B1B",
"e  c #7A1C1C",
"r  c #442121",
"t  c #4A2525",
"y  c #4E2929",
"u  c #522424",
"i  c #5C2424",
"p  c #542D2D",
"a  c #5B2D2D",
"s  c #573030",
"d  c #5C3131",
"f  c #632525",
"g  c #6A2525",
"h  c #642C2C",
"j  c #6C2D2D",
"k  c #762323",
"l  c #7C2424",
"z  c #732B2B",
"x  c #7D2C2C",
"c  c #643434",
"v  c #6B3535",
"b  c #663939",
"n  c #6C3939",
"m  c #733434",
"M  c #7C3232",
"N  c #733D3D",
"B  c #793D3D",
"V  c #744141",
"C  c #7C4343",
"Z  c #7E4848",
"A  c #830D0D",
"S  c #841313",
"D  c #851B1B",
"F  c #8A1C1C",
"G  c #862424",
"H  c #8B2323",
"J  c #842B2B",
"K  c #8B2D2D",
"L  c #972D2D",
"P  c #833535",
"I  c #8C3232",
"U  c #843939",
"Y  c #8B3A3A",
"T  c #913535",
"R  c #9C3434",
"E  c #933B3B",
"W  c #824646",
"Q  c #8C4444",
"!  c #854A4A",
"~  c #8D4D4D",
"^  c #944343",
"/  c #984747",
"(  c #924D4D",
")  c #994C4C",
"_  c #8D5151",
"`  c #945353",
"'  c #9A5656",
"]  c #975858",
"[  c #9D5B5B",
"{  c #A94C4C",
"}  c #A14C4C",
"|  c #A25757",
" . c #AD5252",
".. c #A05E5E",
"X. c #A95858",
"o. c #B35D5D",
"O. c #A56161",
"+. c #AA6464",
"@. c #AF6868",
"#. c #B36464",
"$. c #B86262",
"%. c #B46A6A",
"&. c #BA6E6E",
"*. c #BE7171",
"=. c #C27373",
/* pixels */
"=.=.=.=.@.....[ ......&.=.&.......[ ` Z c y t y s p @   . t p s Z [ +.=.=.{ R L o.=.=.&.+.[ ] ! ( ~ Z c p s p C ` [ [ %.*.*.=.=.",
"=.*.%.....[ ' ` ` ~ ` [ *.=.' [ [ ..O.[ ! v r t y s p ; p p p p b O.[ +.X.A A A R =.=.=.=.#.O.' ~ ~ ~ ~ W s s ! ' ..O.[ +.%.=.=.",
"O.[ [ [ ` ~ ( ~ ~ ~ ~ ( [ [ ~ ~ ~ ( ` ..] v r + r p p p p p s p y ] [ [ T A A A  .=.=.=.=.=.*.' ^ I K K G M v W ` O.[ O.......O.",
"..O.[ ( ~ ~ ~ ~ ~ ~ ~ ~ ~ ~ ~ ~ ~ ~ W C n p + + r s p p p b ] W r B ] [ K 4 A A &.=.=.=.=.$.G 2 3 A A A A D C n ! O.[ ..........",
"....' ~ ~ ~ ~ _ ~ ~ ~ ~ ~ ~ ~ ~ W n n n p + + @ p p p n O.=.=.%.! p ~ ~ w 2 5 F O.@.*.=.=.q 2 2 4 A A A A P d v n ~ ..O.........",
"[ ] _ ~ ~ ~ ~ ~ ~ Q h i m ~ ~ B n v n d + + # t p V +.=.=.%.%.....! b ~ e 2 4 E [ ..[ @.#.2 2 2 5 A A A J p + t v b B ! [ ......",
"~ ~ ~ ~ ~ ~ ~ ( ~ h X X X m B b n n d + + ; t b O.=.=.%.A A ) ....[ a B l 2 4 ~ ` ' ' ` ( 2 2 2 A A A F a + + + + t d n n W ] ~ ",
"~ ~ ~ ( ( ~ ~ ~ ~ - X X X c n n v p + + # r ! *.*.*.@.) A A T [ ` ` W + 8 2 0 ~ ~ ! N v m 2 2 4 A A A 1 + @ ; @ + + + r p v N Z ",
"N C ! ~ ~ ~ ~ ~ ~ X X X - n n c # + @ r r ' =.=.%.O.O.E A A S ~ ( ~ ! + > 2 x ~ ~ N v n B 2 2 5 A A A - @ r r r r @ . . + @ y c ",
"r a n n C W ~ ~ ~ X X X i n p + + @ # r [ =.=.+.[ ..[ E A A A D Y ~ p + @ @ y ! ~ ~ ~ ~ U 2 2 A e A A : r r p p . X X X X + + + ",
"+ + @ a v n N B B X X $ v r + + # r t ] =.=.O.[ ..[ ` J 3 4 5 5 S t + @ r @ + @ n ~ ~ ~ l 2 4 0 ; 6 0 ; t p b Z > X X X X = @ + ",
"@ @ + + @ c n b c X X : # + + ; t y Z =.=.O.[ O.[ ! W P 2 2 2 2 3 + + ; r t r @ + y W ! 7 2 5 = + ; t y n ] @.@.l $ X X X O ; ; ",
"; r r @ + + a v c X X O + + t y s s %.*.+.O...[ ! N ~ ~ 3 2 2 2 - + @ r y p y r ; @ + = 2 2 7 @ r t b ' *.=.=.=.Y 2 X X X O O @ ",
"  . @ r r @ + p v $ . + @ t p t s ! =.*.O.[ ..( b C ~ W j 2 2 9 # + r r s p p p y r r > 2 3 : t p _ ..O.%.*.%.%.^ 2 * X X : .   ",
"      O ; r ; + t @ + @ y p ; O s +.*.+.[ ..[ n b B W N n g 7 a + @ r y p p p p p p y 3 2 6 p V [ ..........O.[ Y 2 3 2 2 = O   ",
"    C ' b y r t @ @ r t p r o p b =.*.O.[ ..Z n n n v v n n n # + r ; O y s b b d p s 8 0 W [ O.........[ O.[ | ^ 2 2 A q + r   ",
"  a *.=.O...[ _ B c d t r . y s _ *.%.....] b n n n b n n n p + ; ; o o ! [ &.=.=.&.+.+.@.O.........] _ ( ` [ [ ` 2 2 A 3 + r . ",
". [ =.&...........V n v ; y p s %.=.@.....C n n n n n v n v @ + ; @ O ] [ [ %.*.*.=.=.=.=.=.+.....] ~ ~ ~ ~ ` ' ..2 2 A , + r o ",
"c &.=.%.......[ ..` n n c @ p V *.=.O...' n v n n v n n n t + ; r = ] [ O.[ [ [ O.O.+.+.%.=.*.O.[ ~ ( ~ ~ ~ ~ ~ ' 3 2 A > + r o ",
"[ =.=.....[ ......! n n v t r V %.%.....! v e z n v C ! c + @ r ; ! [ O.+.[ ( ~ ~ ` ' [ [ %.=.+.~ v a y u W ~ ~ ( 7 2 5 : + ; @ ",
"@.=.%.O...O.[ ' Z b n n n p @ b ........N z A A k N ~ ~ y + r r V ..O.*.=...` ~ ~ ~ ~ ~ ( ` ' ` B r ; ; : t W ~ ~ w 2 4 = @ ; N ",
"*.=.+.[ ..[ ` _ B v v n n p + p ......` n J A A A S S m + @ r t ' ..%.=.%.....( ~ ~ ~ _ ~ ~ ~ ~ ~ ! p r r r t a n 9 2 4 @ @ u [ ",
"m - < h ` ` ~ ( ~ B n b n t @ t ` ....! ~ J 5 A A A A : + ; r p _ ..%.=.&.+.[ L J ~ ~ ( ~ ~ ~ ~ ~ ~ ~ c r r ; ; r 8 2 * + r ! @.",
"i X X X f ! ( ! ~ C N N v + @ r n ....~ ~ e 2 4 S P r + @ r p s V ..+.*.=.$.D A A ~ ~ ~ ~ W B W ! ~ ~ ~ n c a a p n v + @ s [ &.",
"Q X X X < B ! ! B B ~ ! t + r t y Z ` ~ ~ k 2 4 G r + @ ; y p p s ] ....@.H A A E ' ~ ~ ~ n b v v N N B v n n n v n p + @ _ @.=.",
"' X X X i n ! ! N ! ~ B + @ r t t @ @ c ! J 2 3 = + @ ; . r s p s d [ ..( 4 5 D O.[ ` ~ W n n n c r ; a n n n n b v @ + c | &.=.",
"[ X X X i n v N ! ( W r + ; r p y O @ + + = 2 2 + @ @ .   o s p p p d ] I 2 4 K [ O.' ~ N v n n v p ; ; p v v n n p = * 2 / =.*.",
"..X X X h v n ! ( ! a + + r t p p . @ @ @ @ < u ; ; @     . p p p s s p 9 2 4 T ....` ( ! N n n v v c r ; t v b v > 2 2 2 G =.@.",
"` - X X c N ! ( ! v + + ; r p p p t h ! O.%.=.=.~ a @ ; O p s p p s s p 7 2 4 a C ! C ! ~ ~ B v N n n c t t c v i 2 2 2 2 w &.O.",
"( < X X N ~ ( W n p + @ r t p b [ =.=.=.=.=.=.&.( ~ p @ ; t p p s s y p 6 2 3 + + t c n W ( ! Z B N m v v v v c = 2 2 2 2 2 / [ ",
"~ h X - Q ~ W N c + + ; r p ! =.=.=.&.%.+.O...' ( ~ n + r r y p y s s s i 6 i p # + + a b W ! ( Q G S A m b c @ % 2 2 2 2 2 Q ` ",
"~ ! j W ~ W n b @ + @ ; p [ =.=.%...[ ....[ ] ! ~ ~ s + r ; y p d V V n c p p s p r + + p v N x 2 4 A A z p + + , 2 2 l } ..` ~ ",
"~ ~ ~ ` ! n v t + + ; p #.=.=.+.........[ ` ~ ~ ~ ! @ + r t a ` @.........[ _ d p s y + + y b 3 2 4 S 9 # + @ r 2 2 G =.%.' ~ ~ ",
"W N ~ ! N n p + + r a &.=.&...........[ ~ ~ ~ ( ~ p + ; r c +.=.=...' ' [ ......! y y p # + t 2 2 5 ; + @ # t y 2 3 %.%.` ~ ~ ~ ",
"C Q B n v c + + @ c &.=.&.O.( Y E E ^ ! ~ ~ ~ ~ B + @ r ! *.=.=.[ ( ~ ( ~ ` ] [ [ [ c ; y t + 2 2 6 @ r r y p d 2 l &.' ~ ~ ~ Z ",
"~ ~ n v c @ + @ c &.=.%.( e 2 2 5 A A S H Y ( ! # @ t ` [ i j [ ] ! ~ ~ ~ ~ ~ _ ' [ ` p # r r 2 2 , r p s s d %.+.$.' ~ ~ ( W N ",
"~ W b n ; + + a *.=.%.( 2 2 2 4 A A A A A A G s + r ! m X X X h ' ~ ~ ~ ~ ~ ~ ~ ~ ! B n c @ r 2 2 8 p s p b %.*.%.( ~ ~ ~ ( ! W ",
"~ n n t + + p %.=.%...' 4 4 5 A A A A 5 5 A k + @ b ' X X X X = [ ( ~ ~ ~ ~ ~ ( C v n n v p @ : , a p a b %.*.*.' ` ~ ~ ~ ~ ~ ( ",
"C v p + + t @.=.&.......T A A A A A 5 2 2 M r + u &.=.h $ X X $ O.` ( ( ( ~ ~ Z n n n n b c + r r p p s %.=.*.O.` ~ ~ ~ P k G G ",
"N a + + r [ =.&.......[ Q A A A A 5 2 2 l p + r ` =.%...k % X = ..[ ! ! ~ ~ ~ v n n n n v a + @ r p p b %.%...' ~ ~ ~ I 2 2 5 A ",
"c + + y ' =.=.....' ( C n e A A A 2 2 x n + @ p =.=.O.[ x * X $ ....V n ! ~ ~ N v n n n n r + r # p p s _ ......` ~ ~ 4 2 3 A k ",
"@ + u ! +.&.| ` ( ! B b n z A A A 3 2 U # + r ] =.%.[ ..J 2 * 2 [ ..! n N ~ ( C v b n v a + + r y s p p s ! ....[ ` U 2 2 A m c ",
"+ ; C ~ ^ A A D W n n n v m A A A 4 2 1 + @ y =.=.O...[ x 2 2 2 B _ ~ n n B W N n n n v + + @ ;   y p s p p Z [ ..[ l 2 4 q v @ ",
"; t C ~ J A A A P B n b n n A A q 9 2 2 @ r c %.#.[ ` ~ x 2 2 2 W ~ ~ B n n v n n v b t + @ r o + @ p p p p s V ....0 2 4 e # + ",
"y p a ! l % % * I ~ ~ W N n e A z v , O ; r v ~ ` ~ ~ ~ J 2 2 2 k Q ~ C v n b n n n a + + ; r p p p p p s s s y V ` 3 2 5 = # r ",
"s p y t < X X X B ~ ~ ~ ! B n z m c + @ ; p d ! ( ~ ~ ~ M 2 2 2 2 9 ( W v n n n n d + + r r p p p p p b d p s y y h 3 2 6 @ t p ",
"p p d +.f X X X W ~ ~ ~ ( ~ B b v r @ ; y p p N ! ( ~ ( P 2 2 2 3 m ~ W n n n v c + + ; r b ~ O.%.*.=.=.*.+.b y p u 2 2 r t p p ",
"s b %.=.| i : h Z n W ~ ~ ~ b s @ @ ; r p t . c v W ~ ! M 2 2 2 g N ~ ! n n n v @ @ p ! %.=.=.=.=.=.=.*.*.@.O.C r : 2 * y s p p ",
"b %.=.&.O.[ O.[ N c + + # @ + + @ r r p p @   @ c n b n j 2 2 2 g n ~ ~ N b v @ y ` =.=.=.&.%.+.O.O.....[ ' O.[ b @ ; ; y p p p ",
"[ =.=.*.%.[ [ _ n b r + @ @ @ # r t p p p t y y # c n n v 2 2 2 9 v ! ~ N a @ ! =.=.=.%.+.........' ` _ ~ ~ ` [ ..t + @ ; p p o ",
"=.=.=.=.=.%.[ N n n y + r ; @ t y s s p p s s s p + p v v 2 2 2 9 n B V r r ..=.=.%...........H G ~ ~ ~ ~ ~ ( ` ..] b @ r t o : ",
"=.%.[ +.*.%.W n n n @ + ; r y p b V C Z C V d y t y + r c g 2 2 , r + + p %.=.&.O...........' A A Q ~ ` ] ' Q ( [ .._ y ; ;   ! ",
"=.+......._ N v v c + + ; r c _ ..%.&.=.=.=.=.=.b y r + + + + = + + + # *.=.%.' ) ` ..| [ ..I A A I ' ....H A S ` ' ` c ; r t @.",
"=.[ ..O.[ N n b b p + + r ! O.%.=.=.{ T X.%.&.%.W v b y + + @ @ ; r # t %.%.^ A 4 2 ^ ....' S A 5 G [ O./ A 4 5 Y ~ ~ B r r p =.",
"*.O.[ [ V n n n v r + + Z O.*.*.=.H 5 2 9 b ` O.` N n n p + ; ; r p r @ _ [ L A 4 2 0 [ ..~ A A 2 3 O.[ / 5 2 2 Q ` ~ b r r c =.",
"&.[ ..! n n n n a @ + + ] *.*.*.| A 5 2 7 n W ..Y S 4 % - @ @ ; y p p r @ ! H 5 A 2 2 [ ` I A 3 2 l [ O.^ A q x ....! # r t b =.",
"O...` n v v v c ; + + @ ] =.&...' A 5 2 3 n v m A A 2 X X X X ; y p p y r + - X 4 3 3 ' ( K 5 2 2 / ....E A I [ [ ! # @ r y s ] ",
"[ _ n c c c p @ + + + @ _ *.+...` S 5 2 7 N v z A A 3 % X X X X y p p a t r O X 2 A A ` ~ G 4 2 l ......T A T [ ! + + r t s p c ",
"# + + @ ; ; @ + + + @ ; y ` ` ....T 5 2 7 ! B v A 2 2 7 > X X X y p p p p t = X $ * 5 ~ ~ 5 2 2 ' ......I A E ] r + @ r y s s y ",
"y + + + + + r d W B a r ; c ( ` [ [ q 2 4 ~ Z n 3 2 7 i @ X X X t p p p p p t X X X % d x 3 2 x ' ......) H B # @ r r y s y s s ",
"V N b B C ! ( ` ' ` ~ B r @ d ~ ~ _ J 2 3 C v v 2 2 = + + X X X t p p p V ! _ V ; = = @ 2 2 2 n Z ~ ! n p r @ # r r y s s b N N ",
"! ` ` ` ' +.&.=.=.=.#.` B ; + t n ! C 7 9 v c p = @ + @ ; O X X t y V ] [ [ O...[ ! n h < 2 : @ @ @ @ @ r r r t y s b Z ~ _ ~ ~ ",
"O.%.%.*.*.=.=.*.&.*.=.&.` C @ + + + @ @ @ @ + + @ @ # # t : X X y V ..+.&.*.*.*.@...[ ] _ C d t ; r r r r t p s s Z +.%.+.[ ' [ ",
"=.=.=.=.=.*.@.O.[ O.&.=.&.[ ! c t @ # @ @ @ ; ; ; ; + o + o X = b O.@.=.=.=.=.*.=.*.@.O.' ( ~ ! B p p p p p p s ! [ %.=.*.&.*.=."
};
