/* XPM */
static char *_521037012276[] = {
/* columns rows colors chars-per-pixel */
"64 64 6 1 ",
"  c #2D0003",
". c #441300",
"X c #A05A0B",
"o c #D07C14",
"O c #E3901D",
"+ c #E3A64B",
/* pixels */
"XXXoooooooooooooXXooooooooooXXoooooooooooXXXooooooooXXXoooooXXoo",
"XooooooooooooooXXXooooooooooXXXoooooooooooXXoooooooooXXXooooXXXo",
"XXO+OOOOoooooooXXooooooooooooXXXoooooooooXXXooooooooXXXoOooooXXo",
"XO+++OOOOOoooooXXoooooOOOOoooXXooooooooXXXXXooooooooXXooOOoooXXX",
"Xo++++OOOOOoooXXooooOOOOOOOooXXXoooOOoooXXXooooOooooXXooOOOoooXX",
"XoO+++OOOOOoooXXoooOOOOOOOOOooXXooOOOOooXXooooOOOoooXXoooOOoooXX",
"XXoO+++OOOOooooXX++++OOOOOOOooXXooOOOOOoXXoooOOOOooXXXXooOOoooXX",
"XXoo+++OOOOoooooo    +OOOOOOooXXOoOOOOO+oo+ooOOOOOooXXXooOOOXoXX",
"XXoo+++OOOOOoo+        +OOOO+oXXOOOOO++    +++OOOOoooXXoooOOoXXX",
"XXXoo+OOOOOOo+          OOOO++XXOOOO+        ++OOOoooXXoooOOooXX",
"XXXXooOOOOOO+            OO+++XXOO+O           +OOOooXXXooOOOOXX",
"XXXoooOOOOOO+             O+++XXO+++      .     OOOoooXoOoOOOOXX",
"XXXoooOOOOO++       .     O+++XXO++     . ..     OOOooXoO+OOOoXX",
"XXXoooOOOOO+       . ..    +++XXo++    . .....    OOooXo++OOOOXX",
"XXXoooOOO+O+      . ....   o++XXXO+     ... ...    OoXXO++OOOOoX",
"XXXXooOOO+O+     . .....   o+OXXXXO    . .......   oXXXO+++OOOoX",
"XXXXooOOO++     . ... ...  XOOXXoO+   . . .......   XoXo+++OOOoX",
"XXXXoXO++++      . ......  XOOXXO++    ...........  XoXo+++OOOoX",
"XXXXXX+++O+     . ........  XOXXO++   . . ........   XXO+++OO+Oo",
"XXXXXo++OO+      ... .....  XoXXO++    . ..........  XXO+++OO+Oo",
"XXXXO+++OO+     . ......... XoXXO++     . .........  XXO++OO++OX",
"XXXXo+++OO+    . .......... XoXXOO+    . ...........  XOO+O+++OX",
"XXXXO+++OOO     . ..........XoXXO++   . . ..........  XoOOO+++OX",
"XXXXO+++OOO    . . ........ XoXXO++    ... .......... XXoOO+++OX",
"XXXXo+++OOO     ............XoXXO++   . .............. oOOO+++Oo",
"XXXoO+++OOO    . ..........XOoXXOO+    . ............. XoOO+++Oo",
"XXXoOO++OOO     . .........XOoXXOO+     . ............ XoOO+++Oo",
"XXXoOO++OOO    . ..........XOoXXOOO    . ..............XOOOO++OX",
"XXXoOOO+OOOO    . ........XOOOXXOOOO    . ............ XOOOOO+oX",
"XXXXoO++OOOO     .........XOOoXXOO+O     . ............XOOOOOooo",
"XXXXO+++OOOOO     . .....XOOOOXXO+++X     . ...........XOOOXooXX",
"XXXXO+++OOOOOOo    . ..XXOOOOoXXOO++OXX      .........XoOOOOXXoX",
"XXXXo++OOOOOOOooXXXXXXXOOOOOoXXXO++++OOoXXXXXXXXXXXXXXooOOOOXXXX",
"XXXXXO+OOOOOOOoooXXoooOOOOOOooXXO++++OOooooXXXooOOooXXooOOOOoXXX",
"XXXXO++OOOOOOOoooXXoooOOOOOOooXXO++++OOOooooXXoooOOoXXooOOOOooXX",
"XXXX+++OOOOO++oooXXXO++OOOOOooXXo++++OOOooooXXoooOOoXXooOOOOooXX",
"XXXXo+OOOOO++  +oXXXo  +OOOoooX  o+++OOOOoo  XoooOOoX  oOOOOooXX",
"XXXooOOOoo+     +oXX    +OOooo    ++OOOOOo    ooOOOo    OOOOoXXX",
"XXXoooOoo+       +o      ++oo      ++OO++      ooOo      OOooXXX",
"XXXoooOo+                  o         ++          +       OoXXXXX",
"XXXoooo+                                                  ooXXXX",
"XXXXooo+      .      ..        ..          ..        ..   ooXXXX",
"XXXXXoo     . ..    ....      ....        ....      ...   ooXXXX",
"XXXXXoo    . ....  ......    ......      ......    ....   oOXXoX",
"XXXXXXo   . . . ..........  .........   ................   OXooX",
"XXXoXXo    . . ..........................................  oXoXX",
"XXXoXXoo    . ...........................................  oXXoX",
"XXooXXooo    . ........................................... OXoXX",
"XXooXXXoXo    ... ........................................ OXXXX",
"XXooXXXXoo   . ............................................oXXXX",
"XXooXXXoOo    . .......................................... oXXXX",
"XXooXXoOOOo  . ....X...........XXXX........................oXXXX",
"XXooXXooOOo   . ..XX..........XX+OOX.............X........XoXXXX",
"XXXoXXooOOo     .XXXX........XoO+OOOX...........XOX......XOoXXXX",
"XXXoXXoooOX     XoXXoX......XXoO++OOOXX.........XOOXX...XOooXXXX",
"XXXXXXoooOX    XooXXXoX....XXXXO+++OOOOXXXX....XOOOOooXXXOooXXXX",
"XXXXXooooOOX  XoooXXoOOXXXXooXXO++++OOooooXXXXXoOOOOOoXXoOoooXXX",
"XXXXXoooOOOOXXOOooXXoOOOOOoooXXo+++++OoooXXXooooOOOOOoXXOOOooXXX",
"XXXXooOOOOOOOoooooXXooOOOoooooXX+++++OooXXXooooOOOOOooXXoOOOXXXX",
"XXXXoooOOOOOOOooooXXoooOOoooooXX+++++OoXXXXXooOOOOOoooXXoOOooXXX",
"XXXoooooOOoOoooooXXXooooOooooXXXO++++ooXXooooOOOOOoooXXXooooooXX",
"XXXooooooooOoooooXXooooooooooXXooO++OoXXXoooOOOOoooooXXoooooooXX",
"XXXXooooooooooooXXXXooooooooXXXoooOOooXXXXooooooooooXXXoooooooXX",
"XXXXooooooooooooXXooooooooooXXoooooooooXXXooooooooooXXooooooooXX"
};
