/* XPM */
static char *_521037020254[] = {
/* columns rows colors chars-per-pixel */
"64 64 35 1 ",
"  c #4C0005",
". c #A05A0B",
"X c #D07C14",
"o c #B6AE34",
"O c #B6B034",
"+ c #B6B234",
"@ c #B8B235",
"# c #B8B434",
"$ c #BAB636",
"% c #BCBA37",
"& c #BDBB38",
"* c #BDBC38",
"= c #BDBE38",
"- c #BFBE39",
"; c #E29813",
": c #E3901D",
"> c #E9B416",
", c #BFC038",
"< c #BFC039",
"1 c #BEC338",
"2 c #BFC439",
"3 c #C0C239",
"4 c #C1C23A",
"5 c #C1C43A",
"6 c #C2C53B",
"7 c #C4C93C",
"8 c #C4CE3C",
"9 c #C6CE3D",
"0 c #C7D03D",
"q c #C8D23E",
"w c #F6DD31",
"e c #F9FF3A",
"r c #E3A64B",
"t c #CAD440",
"y c #F9FF96",
/* pixels */
"...XXXXXXXXXXXXX..XXXXXXXXXX..XXXXXXXX;;;;;;;;XXXXXX...XXXXX..XX",
".XXXXXXXXXXXXXX..;;;;;;XXXXX...XXXXXX:;;>>>>;;XXXXXXX...XXXX...X",
"..:r::::XXXXXX;;;;;;;;;;::XXX...XXXX;;;>wwww>;;;XXXX...X::XXX..X",
".:rrr:::::XX;;;;>>>;;;;>>;::X..XXXX:;>wwwwwww>;;XXXX..XX::XXX...",
".Xrrrr::::;;;;;>weew;>wwww:>;;..XX:;>wweewwwww>;;;;;..XX::::XX..",
".X:rrr::::;;>>wweeeewwwwwwww>;;.XX;>wweyyeewwww>>;;;..XX::::XX..",
"..X:rrr::;;>wwww>>eeeeewwwwww>;;;;>wweyyyyyeewwww>;;;;.XX:::XX..",
"..XXrrr::;>www>>>>    eeeewwww>;;;>weyyyyyeeeewwww>;;;.XX:::.X..",
"..XXrrr::;www>>>        yyewwww>;;wwyyyy    >>>>www>;;.XXX::X...",
"...XXr:::>ww>>w          yyyeww>;>wwyy        >>wwww>>.XXX::XX..",
"....XX:::www>>            yyyeww;>yyy           >>www>;;;;::::..",
"...XXX:::www>w             yyyew>>wyy      o     >wwww>;;;::::..",
"...XXX::www>>w       o     ryye>;>wy     o oo     >>www>>;::::..",
"...XXX:>www>w       o oo    yyw>;;>w    7 ooooo    >wwww>>::::..",
"...XXX::>w>>w      7 oooo   yew;;;;>     7oo ooo    wewww>::::X.",
"....XX::ww>ww     7 -%-oo   yw>;;;>>    7 77ooooo   >weww>::::X.",
"....XX:>ww>w     7 &&& 5oo  ew>;;;>>   < 7 -&$oooo   weeww>:::X.",
"....X.:>ww>w      7 &&%-%o  ww>;;;>>    ---&&&-oooo  >eeww>:::X.",
"......;>wwww     7 -&&&&<oo  w>;;;>>   < - &&&&&ooo   wewww>;;:X",
".....X;;wwww      --5 &&%7o  >;;;;;>    - -&&&&&%ooo  wewww>;;:X",
"....:r;;>wee     7 ---%&-7oo >;;;;;>     - -33-&-%oo  >ewew>;;:.",
"....Xr;;>wee    7 5----&33+o >;;;;;>    < ----7&-%+oo  >wew>;;:.",
"....:r;;;>ee     7 ----5--+oo;;;;;>>   7 < ----6%&&oo  ;>ww>;;:.",
"....:r;;;;ee    7 7 ----&&&o >;;;;>>    772 ----%&&-oo ;>>ww>;:.",
"....Xrrr;>>w     777-----&&oo;;;;;>>   7 777-----%=%ooo >>ww>;:X",
"...X:rrr;>>w    7 773----&&o>>;;;;;>    8 777-----%%-oo ;www>;:X",
"...X::rr;>>>     8 77-----6o;e>;;;;>     t 7773---%=5oo ;wew>;:X",
"...X::rr;;>>    t tt877----o;e>;;;;>    t tt877------<oo;wew>;:.",
"...X:::r::>>w    t tt07<--->ew>;;;;>>    t tt887-<--&&o >wew;;X.",
"....X:rr::>>>     tttt07---;ew>;;;;>>     t tttq76-%&&oo;>ww;;XX",
"....:rrr:::>>w     t tt077;ew:;;;;;;>>     t tttt82-&&oo>>w>;;..",
"....:rrr:X::>>ww    t t0>;ee:X;;;;;;;>>>      tttt07777&;ww>;;X.",
"....Xrr:XXX::>>>>>;>;>;;eew>;;;>;;;;;;>>>>>;;>;;e;;;;;;>ew>;....",
".....:r:X:::w>>>>>>;>>eeee>;;;>e>>;;;;;;;>>>>>>>ee>>>wee;;;;X...",
"....:rr:::ww>>>ee>>X>>>>>>;;;>eeee>>;;;;;;>>>>>>X::>w>>>>>;XXX..",
"....rrr:wwew>>eeee>.>>>>>>>;>eee>>e>>;;;;;>>ww>>>::X>>>w>>;;XX..",
"....Xr:weew>>>  eee>>>  >>>>eee>  >>>>;;>>>w  w>>>>>ee  w>>;XX..",
"...XX::wew>>     eee>    >>eee>    w>>>>>>w    >>>>>e    w>>X...",
"...X;;wew>>       >>      >>e>      ww>>>w      eeee      >>X...",
"...X;;wew>                  >         ww          e       w>>...",
"...X;weee                                                  >>...",
"...X;weew      8      tt        t0          tt        to   w>...",
"..X;;wee     o <t    tttt      tttt        tttt      too   w>>..",
"..X;;wew    o --&7  7t0ttt    0ttttt      t0000t    7qoo   ;>>X.",
"..X;;;ww   o o - -7777700t0  070<-<qtt   t077770qqq725+oo   ;>X.",
"...;;;ww    o % -<7777777777777-----0077777777777775--@ooo  w>..",
"...X;;>>w    o ---<7777772<<777--<=-777777777777777---$ooo  wwX.",
"..XX;;>>>w    o -----<772----777--%%677777777777777---<ooo$ ;w..",
"..XX;;;>>>w    o-< ----7<<--%=77&%&&--5<-<7777773-<5%-<+oo+ ;>..",
"..XX;;;;>>>   o +------77<&%%%+$%-%&%%----<777<---3&-%=$ooo7w>..",
"..XX.;;;;>>    o $<---<%%-5&#ooooooo+&&&---<-----<-&=%-+ooo >>..",
"..XX..::;>>>  o ooo->==%&&&5oooo>;>oo$%----%%%--3&&-%=<$oooo>>..",
"..XX..XX:;>>   o oo>%-<&&&%-7+o>r;:>;+6++%<-%%%-3---777oooo;>...",
"...X..XX:;;>     o>;>oo#%--%+o>;r:;;>;ooooo+--577>;577oooo;;....",
"...X..XXX;>>     >;;;>>oooooo>X;rr:;;.>oooooooo%&>>>>&ooo>;X....",
"......XXX;>>    >>;;.;;>oooo>;.:rrr:;;:>;>>;oooo;>;;;>>>.;XX....",
".....XXXX:;;>  ;;;;;X:;;>>>>;..:rrrr::X;;X>>>;;>>;:::;;.;:XXX...",
".....XXX:::;>>;:X;;.X::;;;>>;..Xrrrrr:XXX...>>>>;::::X;.:::XX...",
"....XX:::::::;;XXX..XX::;;;XXX..rrrrr:XX...X;;;::::::X..X:::....",
"....XXX:::::::XXXX..XXX::XXXXX..rrrrr:X.....XX::::::XX..X::XX...",
"...XXXXX::X:XXXXX...XXXX:XXXX...:rrrrXX..XXXX:::::XXX...XXXXXX..",
"...XXXXXXXX:XXXXX..XXXXXXXXXX..XX:rr:X...XXX::::XXXXX..XXXXXXX..",
"....XXXXXXXXXXXX....XXXXXXXX...XXX::XX....XXXXXXXXXX...XXXXXXX..",
"....XXXXXXXXXXXX..XXXXXXXXXX..XXXXXXXXX...XXXXXXXXXX..XXXXXXXX.."
};
