/* XPM */
static char *_520953805043[] = {
/* columns rows colors chars-per-pixel */
"64 64 14 1 ",
"  c #180808",
". c #190808",
"X c #1C0808",
"o c #220808",
"O c #240808",
"+ c #2B0808",
"@ c #330909",
"# c #350909",
"$ c #390909",
"% c #3C0909",
"& c #420909",
"* c #570A0A",
"= c #600A0A",
"- c #6D0B0B",
/* pixels */
"-------=-==-=================%.X-------=-==-=================%.X",
"-&&&&&&$&$$&$$$$$$$$$$$$$$$$#+.X-&&&&&&$&$$&$$$$$$$$$$$$$$$$#+.X",
"-&$$$$$$$$$$$$$$$#$$$$$$$%$$#+.X-&$$$$$$$$$$$$$$$$$$$$$$$$$$#+.X",
"-&$$$$$$$$$$$$$$$$$$$$$$$$$$#+.X-&$$$$$$$$$$$$$$$$$$$$$$$$$$#+.X",
"-&$$$$$$$$$$$$$$$$$$$$$$$$$#+O.X-&$$$$$$$$$$$$$$$$$$$$$$$$$#+O.X",
"-&$$$$$$$$$$$$$$$$$$$$$$$$$@++.X-&$$$$$$$$$$$$$$$$$$$$$$$$$#++XX",
"=$$$$$$$$$$$$$$$$$$$$$$$$$#++O.X=$$$$$$$$$$$$$$$$$$$$$$$$$#++O.X",
"-&$$$$$$$$$$$$$$$$$$$$$$$$#+OO.X-&$$$$$$$$$$$$$$$$$$$#$$$$#+OO.X",
"=$$$$$$$$$$$$$$$$$$$$$$$@#++Oo.X=$$$$$$$$$$$$$$$$$$$$$$$@#++oX.X",
"*$$$$$$$$$$$$$$$$$$$$$##+++Ooo.X*$$$$$$$$$$$$$$$$$$$$$@@+++ooo.X",
"*$$$$$$$$$$$$$$$$$$$@#++++Oooo.X*$$$$$$$$$$$$$$$$$$$##++++OoooXX",
"*$$$$$$$$$$$#@###@@@+++O+ooXoo.X*$$$$$$$$$$$####@##@++++OOoooo.X",
"*##@###@@###++++++++O++Ooooooo..*#######@###++++++++O+OOoooooo.X",
"%+++++++++++O+O+O++++OoooXoooo..%+++++++++++O+O++OO++OOooooooX.X",
"..................X.............................................",
"XXXXXXXXXXXXXX..XXXXX.XXXX..XX.X.XXXXXXXXXXXXX...oXXXXXXX.XXXXXX",
"=============%.X-------=-==-===============*=%.o-------=-==-====",
"$$$$$$$$$$$$#+.X-&&&&&&$&$$&$$$$$$$$$$$$$%%$#+.X-&&&&&&$&$$&$$$$",
"$$$$$$$$$$$$@+.X-&%$$$$$$$$$$$$$$$$$$$$$$$$$@+.X-&$$$$$$$$$$$$$$",
"$$$$$$$$$$$$#+.X-&$$$$$$$$$$$$$$$$$$$$$$$$$$#+.X-&$$$$$$$$$$$$$$",
"$$$$$$$$$$$@++.X-&$$$$$$$$$$$$$$$$$$$$$$$$$#+O.X-&$$$$$$$$$$$$$$",
"$$$$$$$$$$$#+O.X-&$$$$$$$$$$$$$$$$$$$$$$$$$#++.X-&$$$$$$$$$$$$$$",
"$$$$$$$$$$#++o.X=$$$$$$$$$$$$$$$$$$$$$$$$$#+OO.X=$$$$$$$$$$$$$$$",
"$$$$$$$$$$@++o.X-&$$$$$$$$$$$$$$$$$$$$$$$$@++O.X-&$$$$$$$$$$$$$$",
"$$$$$$$$#@++oo.X=$$$$$$$$$$$$$$$$$$$$$$$##++oo.X=$$$$$$$$$$$$$$$",
"$$$$$$#@+++ooo..*$$$$$$$$$$$$$$$$$$$$$#@+++ooo.X*$$$$$$$$$$$$$$$",
"$#$$##++++oooo.X*$$$$$$$$$$$$$$$$$$$##+++OOoXo.X*$$$$$$$$$$$$$$$",
"####++O+Oooooo.X*$$$$$$$$$$$@######@+++O+Ooooo.X*$$$$$$#$$$$#@#@",
"+++++++OOooooo.X*####@##@###++++++++O+OOOooXoo.X*#####@#@###++++",
"O+O+OoOooooooX..%+++++++++++O+O+O+O++OOoooooXo.X%+++++++++++O+O+",
"...X..............................X...........X.....X...........",
"XXXXXXXXXXXXXXXoXXXXXXXXXXXXXX.XXXXXXXXXXXXoXXXXXXXXXXXXXXXXXX.X",
"-------=-==-===*===========*=%.o-------=-==-=================%.X",
"-&&&&&&$&$$&$%%$$$$$$$$#$%%##+.X-&&&&&&$&$$&$$$$$$$$$$$$$$$$#+.X",
"-&$$$$$$$$$$$$$$$$$$$$$$$$$$#+.X-&$$$$$$$$$$$$$$$$$$$$$$$$$$#+.X",
"-&$$$$$$$$$$$$$$$$$$$$$$$$$$#+XX-&$$$$$$$$$$$$$$$$$$$%$$$$$$#+XX",
"-&$$$$$$$$$$$$$$$$$$$$$$$$$#+O.X-&$$$$$$$$$$$$$$$$$$$$$$$$$#+O.X",
"-&$$$$$$$$$$$$$$$$$$$$$$$$$#++.X-&$$$$$$$$$$$$$$$$$$$$$$$$$@++.X",
"=$$$$$$$$$$$$$$$$$$$$$$$$$#+OO.X=$$$$$$$$$$$$$$$$$$$$$$$$$@++O.X",
"-&$$$$$$$$$$$$$$$$$$$$$$$$#++o.X-&$$$$$$$$$$$$$$$$$$$$$$$$@++O.X",
"=$$$$$$$$$$$$$$$$$$$$$$$##++oo.X=$$$$$$$$$$$$#$$$$$$$$$#@#++oX.X",
"*$$$$$$$$$$$$$$$$$$$$$#@+++oXo.X*$$$$$$$$$$$$$$$$$$$$$#@+++ooo.X",
"*$$%$$$$$$$$$$$$$$$$##+++OOooo.X*$$$$$$$$$$$$$$$$$$$##++++OoooXX",
"*$$$$$$$$$$$#@#@##@#+++O+Ooooo.X*$$$$$#$$$$$#####@#@++++OOoooo.X",
"*#####@#####++++++++O+OOOooooo.X*###@@######++++++++O+OOOXoooo.X",
"%+++++++++++O+O+++O++OOooooXoo.X%+++++++++++O+O+O+O++OOooooooX.X",
"...X..............X................X............................",
"..XXXXX.XXXXXX.X.XX..XXXXXXXX.XXXX.XXXXXXXXXXX.XXXXXXXXXXXXXXXXX",
"=============%.X-------=-==-=======*=======*=%.o-------=-==-====",
"$$$$$$$$$$$$#+.X-&&&&&&$&$$&$$$$$%%$$$$$$%%$#+.X-&&&&&&$&$$&$$$$",
"$$$$$$$$$$$$#+.X-&$$$$$$$$$$$$$$$$$$$$$$$$$$#+.X-&$$$$$$$$$$$$$$",
"$$$$$$$$$$$$#+XX-&$$$$$$$$$$$$$$$$$$$$$$$$$$#+.X-&$$$$$$$$$$$$$$",
"$$$$$$$$$$$#+O.X-&$$$$$$$$$$$$$$$$$$$$$$$$$#++..-&$$$$$$$$$$$$$$",
"$$$$$$$$$$$#++.X-&$$$$$$$$$$$$$$$$$$$$$$$$$#++..-&$$$$$$$$%$$$$$",
"$$$$$$$$$$#++O..=$$$$$$$$$$$$$$$$$$$$$$$$$#+OO.X=$$$$$$$$$$$$$$$",
"$$$$$$$$$$#+OO.X-&$$$$$$$$$$$$$$$$$$$$$$$$@++O.X-&$$$$$$$$$$$$$$",
"$$$$$$$###+OOo..*%%$$$$$$$$$$$$$$$$$$$$$##++oo.X=$$$$$$$$$$$$$$$",
"$$$$$$##+++ooo.X*$$$$$$$$$$$$$$$$$$$$$#@+++oXo.X*#$$$$$$$$$$$$$$",
"$$$$#@++++oooo.X*$$$$$$$$$$$$$$$$$$$##+++OOooo.X*$$$$$$$$$$$$$$$",
"@#@#+++++ooooo.X*#$$$$$$$$$$#######@+++O+Ooooo.X*$$$$$$$$$$$@###",
"+++++O+oOooooX.X*########@#@++++++++O+OOoooooo.X*##@###@####++++",
"+OO++OooooXooo.X$+++++++++++O++OO+O++OOooooXoo..%++++++++++++OO+",
".............X.....X...........X..X.............................",
"XoXXXXXXXXoXXXXXoXXXXXXXXXXXXX.XXXXXXXXXoXXXXXoXXXXXXXXXXXXXXX.X"
};
