/* XPM */
static char *_521036910324[] = {
/* columns rows colors chars-per-pixel */
"64 64 43 1 ",
"  c #2E1E13",
". c #301F14",
"X c #2F2018",
"o c #322116",
"O c #35241A",
"+ c #38271C",
"@ c #37281E",
"# c #3B291E",
"$ c #3D2C22",
"% c #3F3026",
"& c #412F24",
"* c #443226",
"= c #463429",
"- c #49362A",
"; c #4C392D",
": c #503C2F",
"> c #4E3C31",
", c #523E32",
"< c #554235",
"1 c #594436",
"2 c #574438",
"3 c #5A4639",
"4 c #5D493C",
"5 c #634C3E",
"6 c #5F4C40",
"7 c #654E41",
"8 c #665142",
"9 c #6A5344",
"0 c #6C5649",
"q c #6E594C",
"w c #735B4C",
"e c #755F51",
"r c #785F51",
"t c #776052",
"y c #7A6254",
"u c #7D6759",
"i c #7F685A",
"p c #836B5C",
"a c #866F61",
"s c #877062",
"d c #8A7364",
"f c #8E7768",
"g c #90796A",
/* pixels */
";;;<1--=-=-*&&.O.....+..*;,7779797955955555555559595531331-;----",
";---------==&...+.$....+$-,,5,779095959555585955555575544,,--:-*",
"-------=-=&=$$$O..+.$+.X.+*;,7,7999955555555585595558531732-*:--",
"-;14;-==;=-=.&,,1571-;>*$&-*-,,67599959555558959955577344>--*-:-",
"--3<3*=-===;6088990999098872,>>,,759959599588555955959515,,*-::*",
"&<<<<<>-=;9qqq8795999w55800986>;,55555595859555595555531,,,-*-**",
",,<<4<;=>0qq077755555559879we06>,,,9555555955555995555555::::-;-",
"31<3<3<=6qq804561--155557*&7q,,,,,,,59955555558595505955;::,:-,:",
"<32262,=6qqq667;###*-555;+.$;,,,>;;>2<22<668585555555555,:,,1,,,",
",,<2222=888876,O+..#*551$..O&-,26>;;<2<<4<5885585p5w5555:,,:,,,,",
"<3,2262-q08653O ...#5551..+OO*>,26>=>2><<255985855w555w55:::::,,",
",<44443>88885O O.+-55w05.....&>6666%%2<4334595555555w5559:,::::1",
"<344,63,97971O.#.:,99975....X$236,6$=,>225588755555555555:--,,1,",
"<<3273,,7995&.+O&5w59799>$$$@=67662$%,<<<875455455555555-:::,,1,",
"338473,37w85-O.#:wr5957,,&.**68766,%;2,2854543;--155555:1:1::::,",
"3443,43,0rrw5:&1rr9-5,,>,;;->0wq006$>,26344;;;-#O+:1:111:::1:,::",
"443434320errrwwr9,&..+&==;;;20rpeq-#<<<<<<:-5ppddp5=%<<<<<<*<-<<",
"3343342<8eyrrrww9.O.O+.O&-=>7epay1&<<<<<:::ppwpdddiy5<*-*<<<<-51",
"3243343<6wytrryww..++O..OO=>7uaay<&<<<<<-:wrp5prfgffd5-*=<<<<<53",
"44343422>0eerryr5+..OO.O#.O-8upa5=-=<<<--5p5pr5pyyw55u51@$$=*<15",
"43443433><8eweq9,..O...+...&0rrr2=<<<<<<<r511::--355w5dp<$$*<<11",
"483333332;>60q08-O$..#O.OOO*re8,<<<<<<=45w51oooo+#155wggi5<##*<3",
"334443432<>270q7&+..+OO+O.#>07>-<3<<2<<ip5<O+o+o..<555wgffa<$&<&",
">434344342<->489,&O&,:=->*-47;;,<4233<5pa1-oo+o.+#15p5555qq0<%@&",
"=4344444322<=%2895,:,2>,,>47>;,,32552=uidpooo+.o&1w5w55#O45055=$",
"$;36243463<<;%=4779,>2>>747>=>:,3554<=isppoooooo&55555OooOO%355$",
"@*;34423<2<=;=$*37777,>874>=>>,35453<6sid5&o+oo&155pp5o.OooOO<5<",
"%==-;35<<<;<>-%$*,7998984=&->,,2545<2iii55:&&155555555oo  ooo#4<",
"*=-;-;,:%<2<<%=*&&478972&$=-;,,3434<3qe855555551555555;OoooooO45",
"==--;=*<<<%<<;==&.&,,,&$O&=;2233442>2q88r5555151155505<#++Oo.+59",
"%*=-*;*:%2<2>>>;&.O@$O$O&=;,24>4452>eq865w15151555550055;=+o+<qq",
"%%==;---<%>%%>=;-.OXX+O@&=>;>2,3446%q0965555151:-155555551-&-950",
"&&*----*-*--*&-&XXX%@X@@$%;<<334433%e8689595*..+..##*:1597759997",
"+&*---*:--&*-<-#@@0666$$X%==<333342=e98893-++.+.+OO.O+&-59759791",
"*+&-&&*--*---<*#%266086=@X=<<<22432=t08851#.o..oOO.O...#-5579555",
"-#&-:----<<--###%66008044*%%=<<2622;tw957O$ +++.+O OO+o++-:59555",
"&#*----:*:--&*-<24689870eq2-=<<<22,6ty887*$OOO OOoOo.+O.o&-19995",
"*#--::**:*-&#<112660899uutq9<=<<42,4tyr8,$#$+O  .o.O..OO++*,9959",
"#*-:*-----&&<5944326ppyppptt5-<<32<;wyr9,$$$+$XOoO..o.+Ooo#,5099",
"+:*-*--*:&&<5rr54$@>wdppyitiw<&<4,<=9ryw7*#O$$$$OOo.OOO.+.+-59w0",
"O;**;-*-**15rrwr@o+#5ypppprpp5&:,,<;=qr00>&$$$$$#+..#.+..oo&155*",
"O--;-;;-&<55rwrw@Oo+=8ppppp15w#<,,,>=400075,->>2551-##.#..O+1p9+",
"----*-*&:15wrwr5$oOo#:9ppp55<1&<4,,>&-40qqw74468775&+....+##w5:+",
"*----*#&15wprppw<++o.#155555<<-:,,,,>&>40wew96087995,-&.#--wr-&&",
"*&=**++<5wwrwpd55*&.o+*45515<<=<;,,,,>*;5werq888997555,17raa:**-",
"*<-=##505-#5wrr555-+ooo#<551-<--,,,>,>-&&pppe0663999000wpds6*--&",
"--==*<55-o.:5pp5550<++o+<555<<-=;---;;;-&-ppu0624755999epa8*--:;",
"<-O11555oo+&55555w555&&55555<-&*-=--*;--=*=raqq6457500wap,*-----",
"*-#555w5#O+-159550505555555555&-----*-=-==*=eqw4,74460ue=%=>>=>=",
"*+@55w55&#&w5wp995955055555555&-*:-;-----=*%-3e77726486&%;;>;==>",
"=O*555554&-5w9w51=&+#-555555yr**;-&;-*--;;*&$=7967762=%%;;>=>=>>",
"-O<55wrww15wwww-+oooo+-555r550&*;:--;---;=-=%$&-663-%%&;>=>;==>=",
"<X-25e0ww55559:+oooOoo#;5pww5p-*---*--;-*-==*-*&%==$&-;-;>;=>-==",
"<%$<5qwww5515:ooo+ooo+$-5wwwww-*-**-----;=-*-*-*$=&=-;-;>>>>===-",
"=-=<45ew5555:oooooooo+@;55pwr5<<:---**-***-**-**&=;;;-;>=>>->;->",
"=-=<<5w5555:ooo+ooooo*=>5p5fr1<<,:,--------**:-*--&;=--;;;;;;;-&",
"<=<$*4w5555:oo+o O;%$*-;8wdsw:11,1,,;;----;*-;-*---:--;;=>;;&=->",
"*=%-$<55555:###&>>-=*->;0psy8,59,,,:1-:***----------:-*-;>;>=>==",
"<$==<@-45555<-*:>>-;>>2>idw727w599099,,,;*,,:,,--------;=>->;=;=",
"<*=%<#$555555<::>,,,><78it3488557977997;;:;>:,:,::-----;-=--;=>=",
"%**<;-#%5559www9311147wq90885900989897754,>>,:,:-,:->*--;--=&===",
"<%<%*<--<wrrwwrww5133u9259855959999907957,54551,11:1>>>>>*=-;==;",
"*<%<1<<-<19wwrwwwwwww9*-<08859599890999544,443445,1:>>;>>-=--=>-",
"*==<<:<--*1599ww83,1;+$=-359995989795795443433441513632,->;-===="
};
