/* XPM */
static char *_520953818236[] = {
/* columns rows colors chars-per-pixel */
"64 64 25 1 ",
"  c #494949",
". c #4C4C4C",
"X c gray30",
"o c #505050",
"O c gray33",
"+ c #585858",
"@ c gray36",
"# c gray38",
"$ c #656565",
"% c gray42",
"& c gray43",
"* c #727272",
"= c #767676",
"- c gray47",
"; c #7E7E7E",
": c #818181",
"> c #868686",
", c #898989",
"< c gray56",
"1 c #929292",
"2 c #959595",
"3 c #9B9B9B",
"4 c #9F9F9F",
"5 c #A0A0A0",
"6 c #A4A4A4",
/* pixels */
":::;---->:::;;;;==*==;:-===--=============-;*;-=*&&&&**&**##@++#",
":42222323534311211111121233221<<<<<1<<122122111<<<<<<<<<<;;=@++#",
":322<232232211212,,111122112<<,<<<,<<,<<1<<1<<1111>>,>,,,;=*@O+#",
":4221<22,2222,<1,:;,,22,,1<<<<<<1<;:1<<,<;;<;;,<1111,,,,;=*=@O+@",
":421,11>;,>,>>,,;:-:,,,>,,,,>,,>,:**;;;:--;:--;-;;:;;:;;:==%@OO#",
":312,>>::;,,,,,;;;--;>,,>,>,>,,,;-*==*;---;;------;:;;:;==*%@Oo#",
";4111,>>>,,>;-;---=--;;,;;::,,;;-=;;;-=*;;:;:---:;:--;;:==%%@OO@",
";2111,,,>,;:;----;-:--:;:;;;;;-:;;;,::;-=;;::-;::;------**%&@OO@",
";<21,;;::;--;--:,,;,;-;;,>:-;::;,,,,>,,;;-=;:;;;;::---=***&%+Oo@",
"-11,;;:-----;:;;>,,>:---;,,;;;;;;;,>,,>,,;:;;;:;;;;-=****&%%+OO#",
"-1,;:;---=-;,>,,>,,,;;---::;:;::--;;,>>,,,,>;:;::;-=**=***%%+Oo#",
"*>;:--:;--:,,,,>,,;;:;:;--;;:;----;:;,,,>>,,>,,;:-***=--**%%+Oo#",
"%;-=***-;:;:>,;:::--;;;::---;---::;:;;:;---;--:;;-*=*-,;-*&%+OO#",
"-,;-=*=*--;;,;;---;:::;;;;;;---::;;:;:;:------;:;:-*-,,,**&%+oO#",
"-3:;-;**=*-;:;---;>,,;:;;;;:----------;-;-:;:;:--:;-;:,;**&%+oo@",
"-2,;----=*=-;-::;,,,>,;;::;;;::---;-------;,:--*=-;:;;,;=*&%@oX@",
"=2<>---;;---;;>,,>;:--------:;;;;---;::;:;,,-****=-;;,,,=**&OXX+",
"=31>----------:,>:;----;--::;,,,,,,,,;;;,>,-=*==**=->,,;-=&%+oo#",
"=22<,----------::-------;:,>,,>>,,,>,>,,>,,-***---**-,;:===&@XO@",
"=13,,-;------;---=----::,>,,>,,,,>,>,,,,>,-*=*-:::-;,,;;-*&%@o+#",
"=2<<,---;:;=--=-=:;=-***-;:,,,,,,,>,,,,---*==--;;:--:,:-=**&@OO$",
"=2,>--:;;,,;:=-;;>::==*==--;;->,>,;;----=***--:;;;---;--*&=&@Oo#",
"=<<>;----;-:>:>,:;-*=***;;:;:;------------*-:;---;=--;::&*&%@O+#",
"=,<=--------;;:;-==****=:;;;:;;;--;-;---;--:;:-=----:;==*&%%@+X#",
"=,,=======--=-=-=-*==****=***=*=--==-===*=*=*=&&&*&***=*&*%%++o#",
"*<=*======-;-=-=-=*****=*&&&&***=-===-=*=*=*&&&&&&****-=*&%%+OO#",
"&<=***=*-=----=**==*&&&&&&&&&&&&&&==*=*=&**$#$$$$%&%**=&&%%%@O+@",
"&=*****===--*=*-=&&&&&&*&&&&&&&*&&&&=**&$$$$$$$$$$%=**&&%%%$@O@@",
"@+O+++O+O+o+++++O+O+++O+++O+O+XOOo++O++++@@@@@@@@@@+@@++@++@@XO@",
"ooXXXXXXXXXXXXXXXXXXXXXXXXXXXX.XX.XXXXXXXXoOOOOOooooooooXooXXXO+",
"++OOOOOOOOooOOOXXOoOOOOOoO++O+oOooOoooXO+++++++O+O+oOooO+OoooOOO",
"@@@@@@@@@@@@@@@@@@@@@@@@@@@@@OO@@@@#@#####$###@######+@+@@+#@@@+",
"=;:-;;;;-;;;;;;;;;;;;;;;;:-%@OO@>>>>>>>--:;;;;-==--;;;;;;***-;;;",
"<322223223223223422422342222#+O#>66543343432211<<,232343<11<1233",
",11<11112<<<<1111112222221<&@oO#>6632331221111<,121<1121<<<,,<11",
",,,>,,,<<<<<<<<1,>,,>,,<<<&*@O+@>6333321111111<,,,>,,>,,>,,,,,,>",
"-------:;;;:----*****=*:<;**+o+#>631>,,>>,,,,,,;--;------;;:---;",
"---;:::--:;;--=**=*=;:;;,;=*+oo@>532,>,,,,>,;;;::-------::------",
"--:;------=**=**=**;;;:;;==*+oo@>331>,>,,>,;;:;;;;--;-:;;-------",
"-;:;::---=****==*=--:;;;====+oX+>31<,,>,:;;:;;:;:;:;;;;::-;---;-",
"::--,,>;---==*-=*---:>,;=-==OoX+>31<,;;;;;:;,>;;;:;;>,;;--;---;;",
";;>,,,,,:---**-----;,,,,--==+oX#-2,<:;;::;,,,,,,;;,,,,,;;-----:;",
",>,,,,,>:----=--:;;,,>>,=**=@OO#;2<2,;;;>,>;;--::;;,,>,,;;--;:;;",
",,,>>>,,,:----:;,,,,,,,;=**=@o+#-2<<>,,,,,:-*=*-:;;;,,>,,;:;;;;:",
";;>,,,,;:;;;:;,>>,;:;:;;*-&*@OO#;41<;:,,;-=*****;;;:;;::,,,,,>,,",
"::;:,>;;;;,,,>,,;:;;;;--=*&*+OO@;<2<;;-;-=***==*-:;;:;;;;;>,,,,;",
"--;;:::;;:;:;,>,,,,>;---*&&&@o+#;231,-*=*****=------;;;:;:;;;---",
"--:;;---;:;;;;,,>,,;::;;=&**+Oo#;141,,;-*=*=--;:--;------;:-----",
"----;---;-:,>>,,,,;:;-;-&&%&@oo@;1<2,-------:;;;:;--;---;-------",
"-;---------;,,,>;:;;----=&%&+XX+=<,<--;---:;;-:::;::-------;-;--",
"::;------;::;;,;;---:;:-**$%+oX@=<<1--;;:,,,;:;;-;--:---------;;",
";----;--::;;::;;;----:;;&&$%+XX@=<<<,-:;:;;,>,:;-----:---;--:;:;",
"-=*=-;;;::;:;:-----;----&%$%+oo#=<,<,>;;;;;:;:;>,;---::;---;;:;;",
"***==-:;;--:;---;---*==-*&%%@Xo#=1,<,>,,;:;;;:,,,,;---;;:;:,,**:",
"--=--:;:----:;-;--=*=*=**%$$+O+#=,<<,,>,,,,,;;;,,,>;:--:,,>**=*=",
":;-;;;;------:--***&&*--&%%%@O+$=,<,>,,,>,;;:;;:>,,,,,:-;,=*****",
"--;:-----=*=*--**&&%*=;-&&%%@OO#%,<;***&-;---;==*=*=*=*=**&&&&&&",
"*----&*&*=******%%%&*---*&&$@OX$&;;&&***------==*********=&&&*&*",
"%%%$%&&&&&&&%%%%%&**----**&%@oo##;%%%&==-=-=******&&&&&&%%%%%$%%",
"$%%$%%%%&&%%$%*&**-;----&&%%+oo##&&%%&===-=-******&&&&&&%$$%%%%$",
"++@@@@+@+@+@++@++@++@++++O+++XO@+@++++++++@@@+@@+@++++++++++O+++",
"ooooOooooXXooXooXXXooooXXXXXXOOoOoXXXXXXXoOooooooooXXoOXXXXXXoXX",
"O++++OOooOoO+OOOoOOOOoooooo+O+OOO+O+oOOoOO@@O+ooOOO++++OOO+O+OOO",
"@@###@@@@##@###@@@##@#@++#@@@@##@@#@#@@#@###$####@###@@@@#@@@@#@"
};
