/* XPM */
static char *_520953809314[] = {
/* columns rows colors chars-per-pixel */
"64 64 23 1 ",
"  c #494949",
". c #4C4C4C",
"X c gray31",
"o c gray32",
"O c #565656",
"+ c #5A5A5A",
"@ c #5D5D5D",
"# c gray38",
"$ c gray40",
"% c gray42",
"& c #6D6D6D",
"* c gray45",
"= c #767676",
"- c gray47",
"; c #7E7E7E",
": c #818181",
"> c #888888",
", c gray56",
"< c gray57",
"1 c #959595",
"2 c #9B9B9B",
"3 c #9F9F9F",
"4 c #A4A4A4",
/* pixels */
":::;---->:::;;;;-=*=;&;-==;&*;============-;*;;=**&&**&*&*##@+O#",
":311112123232<111<,<<;&<;*&*&*&;,<;1,,111<11<<<,,>,,,,,,,;;*++O#",
":211<11112111<<1<>>,<1&&*&*&*&*&;,%;;>,>1,,<,,<<<<>>>>>>>:==+O+@",
":311,,21>111<>,<,;:>>1;*&*&*&*&**&;;1,,,,;;,;;,><<<<>>>>;=**@o+#",
":311>,<>;>>>>>>>:;-:>>%%*&&*$$@#****;;;;--;;----::;;:;;::==%@oo#",
":2<1>>>;;:>>>>>::--&;>%%%**&$$*#$%$*=&:---;:--;---:::;;:==*%+Oo#",
";3<<<>>>>>>>-;;---*-&%%*%%$$$***#$$$%***;;&;:---::;---::==%%+Oo@",
";1<11>>>>>;;:----:-;%%%&$$$$*==---#$$%:-&&:::-;:;;------**%#@oO@",
";<1<>;:::;---&-:>>%%%%**$$--><<<><-*%%%%%&*;;&;;;:;---*&####+oo@",
"-<<>;:;-----::&;>%%%%%$$$;-><<;::;>-**&%$%;;&::;;;;&=*$#####+OO@",
"-<>::;---=-:>>&&%%$%$$$$$--&<;:;--;:>&**$%%$&;;;:;&&$$$$$#%%OOo@",
"*>;:--;;--:>>>>%%%*$$%$$*-<<;:----;;><=&*$$%$$%;&%%%$#$$**%%+Oo#",
"#&-****-:;;;>>%%%%$*$$$*-<:;-;--:::;;>>&<<*$%$$%%%%$%%>;-*&%OoO@",
"*&$$****--:;>%%%%%%$$$*-<;:----:;:;:;:>&--<*%$%$%%%%->>>**&%+XO#",
"#$#*$$****-%%%%$%$$$*&><;:;;-----------<&-:<$$%$%;;&&;>;**&%+XX@",
"**--*$$$*%%%%%%$$$**&>;:;;;::;:---;---;>--;>%$$%*-;;;&>;**&%+oX+",
"--,>-&$$$$%%%$$$&*>>&;---;--;:;::---;:::>;>>&$&=**-;:>>>-*=&+XX+",
"-1,>&-$$$$%%$%**>;:<>&:---;:;>>>>>>>>;;:>>>&*$&&**=->>>;-=&%OXX@",
"=11,>-*$#@#@$&&:;--:<>--;;>>>>>>>>>>>>>>>>>&*##-&-**->;:==*&+XO@",
"=11,>-=$@@@@$*-&-=--;-::>>>>>>>>>>>>>>>>>>&**#$;:;-;>>;;-*&%@XO#",
"=1,>>--$$#$#*--==;;=-***-;;>>>>>>>>>>>>--&***#%$;:--:>:-=&=&@oO#",
"=<,>--&&$$$**-=;:>:;=***=-&::->>>>;:----=&**-*$%;;---:--***&+Oo#",
"=,,>;--$@##*>;>>;;==*&**;&##&:--;----;-;&-*-;$%$-----;;:&*&%@oO#",
"=>,=&--$@@$*;;:;=-=&**&&$@@+#&;;--&--------;;;$%$---;:-=*&%%++X#",
"=>>==&@@$$$#=-=--==*&@@@@O+O@@#=&&=-=-=*=***=**@#**&&*=*&*%%++X@",
"*,===$#@$$$$$=-==-&&@O++++O++O@#&-==-=*=*==*&&*@&%****=**&%%+oO#",
"&>=*@@O+@@$$&&*===*=&@@OOO+OO+O@@#===**=*&##O+@@$$%&*==*&%%$+O+@",
"*=*$@@+O@@$%&*&**&#$$$$$$$$$$$$$$$*&***&$$##+O@@#$&*=&&%%%%%@o+@",
"++O+O+O+++O+O+O+O+O+O+O++OOOOOoOOOOOOO+OO++@@@@@@@++++++++++@Xo@",
"oXXXX  X XXXX  X XXXX  XXX XXX X   XXX XXXoooOoooXoooXXXXXXXX o+",
"OOoooooOoOXXooooXoXooooOooOOOOXoooOooooO+++++OOOOOOooooo+oXXXOOo",
"@@@@+@@@@@+++@@++@@@+@@@+@@@+Oo@++@@@@#@#####@##@##@#++++@+@@@++",
"$*$$@@$$*;;;;;;;;;;;;;;;;:-%@Oo#######;;;;;;;&&&*&**&;;;;***=;;;",
",;&$@@$*;1211121311311231111@OO@#@@#;;3333211:&&***&;232,,,,,231",
">1;*$$*;&;,,<<<1<1<111111<,&@oO####;122<1<<<*&&>;;,,<11<,,,,,,,<",
">>>;*$&&;<,,,<,,>>>>>>><,,&*@oO@#@;2221<=<<*&&,>>>>>>>>>>>>>>>>>",
"-----$$*;;:;----****=**;,:*&+oO@#;21>>>>>*$%&*>;----;----::;=---",
"---;;$$$*;:;--=*****;;;;>;==OoX+#411>>>>>&%$&;=;:-------;;-;----",
"--:;->$$$-&****&***;;:;:;==*+XX+#22<>>*>%%%$*;;::;----:::---;-;-",
"-;:;:;$$$&****&**=--;:;;=*==OXX+;1<,>>*&%%$*:;;;;::;::;;:-------",
"::-->=&$$$##$$&**---:>>;=-==+XX+#11=>;%%%%%$>>;;;;;;>>:;----;--:",
";;>>:&<*$$$$$$$*---:>>>>--*=+Xo@;1>,*&%%%%$%%>>>::>>>>>;------;:",
">>>>>;;<=&$$$$%*:*;>>>>>-**=+oO#;1<1*%%%$%$%%=*;;;:>>>>>:;--:;:;",
">>>>>>>;&;<*#$%&*&>>>>>:****+oO#-1=#%%%%$<<$$**%;:;;>>>>>::;;;:;",
";:>>>>>:;;:<&$%%&>;;;;;:*-&*+oO#*$$$%$%$<>:<%#$*;;:;;;::>>>>>>>>",
";;;:>>;;:;>;&$%%&;::;:--**&=@oO@**$%%#>>;*>-#$%*-::;::;;;:>>>>>;",
"--;;:::;:;;*&$%%>>>>:---*&&&+oO#;1**>-;:=**-<%$#-----:;:;::;----",
"--:;;---;;&*>*$%>>>;;::-=&=&+oo@;<3<>>;---**:;<$%--=-----;:--;--",
";-----;---:><*%%>>::;--;&*%&+XX+;1,>>>;------>;<$$*------;---;--",
"---;-----;-;>*%%;:;;----=&%&+XX+=>,>>-----:;-=&$$$%;--=--*;-----",
":;--;----:;;*&%%:-;-:;:-=&$%+XX+=,,<----:>>-::;%&$$$**--=------:",
";;------:;;:&;%%-----:;;&&%$OX @=,,<->;;:::>>>:&-<$$*:-$*---:;::",
"-=**-;;:;:;:;;$$--;-----&%$%+Xo#=,,>>>;:;;;::;;>>:$%$$$%%--;;;;;",
"***==-;::--;;-$$----**=-=&%$@Xo#=<,>>>>>;:;;;;>>>>>%$$$%*;:>>=*:",
"--=--;;;---;&&$$--*=**=*&$%%+O+#=>,>>>>>>>>>;:;>>>>;&$$$>*>*****",
";;-;;::-=----&$$***&&*--*%$%+o+@=>,,>>>>>>;:;:;;>>>>>>$#;>******",
"--;;--$***&###$##*&$*--;&*$%@oO#&>,;***&------==****&*%$$O&*##&$",
"*--=-&&#$##@#####+#&*---*&&%@OX#&;;%*&**--;-;-==***=**$*O$O++$#$",
"%****###@#++++##++++**-=*&&%+XX##;&&&%===-===*****&&&&&*%O+OO$++",
"$%#$###@##++++##++++@@$*&*$%+Xo@#&&%%&==-=-=***&**&&*&&%#$O++O+O",
"+O+@+++++++++++++++++++++O+OOXo@+++O++O+O+++++++++O+O+OO+OOOOO+O",
"oXooooooXXXoXXXXXXXXXXXXX XXXoOoooXXXX XXXooooooXXXXXooX XXXXoXX",
"OO++OOoooooO+OOooooOOoXXXooOOOOOOO+OoooooO@@OOoooOOOO+OOOOOOOOOO",
"@@#@#@@@@+@#@@@@@@#@@++++@@+@@@@@+@@@@@@@#####@##@#@@@@@@@@@@@++"
};
