/* XPM */
static char *_520953813817[] = {
/* columns rows colors chars-per-pixel */
"64 64 154 2 ",
"   c #384619",
".  c #3A481B",
"X  c #3D4B1E",
"o  c #3E4C20",
"O  c #3E4D22",
"+  c #404E21",
"@  c #445226",
"#  c #445229",
"$  c #465529",
"%  c #46552A",
"&  c #48582A",
"*  c #4B592D",
"=  c #4A592E",
"-  c #4C5A2D",
";  c #4E5C2F",
":  c #4F5C36",
">  c #4A503B",
",  c #4C533E",
"<  c #4D543F",
"1  c #515D39",
"2  c #545E3C",
"3  c #536237",
"4  c #56653A",
"5  c #57663A",
"6  c #58673B",
"7  c #59673D",
"8  c #59673E",
"9  c #5B683F",
"0  c #4C4C4C",
"q  c gray30",
"w  c gray31",
"e  c #4E5540",
"r  c #515744",
"t  c #515842",
"y  c #535945",
"u  c #545A45",
"i  c #555C47",
"p  c #565C48",
"a  c #585F49",
"s  c #505050",
"d  c gray32",
"f  c #535353",
"g  c gray33",
"h  c #565656",
"j  c #585858",
"k  c gray35",
"l  c #5A5A5A",
"z  c #5B5B5B",
"x  c gray36",
"c  c #5D5D5D",
"v  c #5F5F5F",
"b  c #576340",
"n  c #5A6643",
"m  c #5B6940",
"M  c #5C6A41",
"N  c #5F6C43",
"B  c #5D6748",
"V  c #59604C",
"C  c #5C634D",
"Z  c #5D644F",
"A  c #5F6354",
"S  c #61694C",
"D  c #627047",
"F  c #606652",
"G  c #616753",
"H  c #606554",
"J  c #616655",
"K  c #626854",
"L  c #636857",
"P  c #656B57",
"I  c #656C57",
"U  c #656B5A",
"Y  c #656C58",
"T  c #666D59",
"R  c #676D5D",
"E  c #686F5A",
"W  c #686F5B",
"Q  c #6B7850",
"!  c #6B7852",
"~  c #6C7854",
"^  c #6D7A54",
"/  c #6F7B57",
"(  c #6F7C57",
")  c #69705C",
"_  c #6A715D",
"`  c #6C735E",
"'  c #6C735F",
"]  c #717B59",
"[  c #717C58",
"{  c #727C5A",
"}  c #737F5B",
"|  c #606060",
" . c gray38",
".. c #626262",
"X. c #656565",
"o. c #6B6F61",
"O. c DimGray",
"+. c #6A6A6A",
"@. c #6C6C6C",
"#. c #6D6D6D",
"$. c gray43",
"%. c #6F6F6F",
"&. c #6F7562",
"*. c #777E6A",
"=. c #787E6C",
"-. c #797F6D",
";. c gray44",
":. c #717171",
">. c #727272",
",. c gray45",
"<. c #747474",
"1. c #767676",
"2. c #777777",
"3. c gray47",
"4. c #797979",
"5. c gray48",
"6. c #7B7B7B",
"7. c #7C7C7C",
"8. c gray49",
"9. c #7E7E7E",
"0. c gray50",
"q. c #73805B",
"w. c #75815E",
"e. c #788461",
"r. c #79806D",
"t. c #7B816F",
"y. c #7B8170",
"u. c #7D8172",
"i. c #7F8473",
"p. c #7F8574",
"a. c #818675",
"s. c #838978",
"d. c #838979",
"f. c #858B7B",
"g. c #898D7F",
"h. c #818181",
"j. c #868686",
"k. c #888888",
"l. c gray54",
"z. c #8B8B8B",
"x. c #8D8D8D",
"c. c gray56",
"v. c #909090",
"b. c #929292",
"n. c #939393",
"m. c gray58",
"M. c #959595",
"N. c #979797",
"B. c #989898",
"V. c #9B9B9B",
"C. c gray61",
"Z. c #9D9D9D",
"A. c #9F9F9F",
"S. c #A4A4A4",
/* pixels */
"h.h.h.9.3.J L J R R B B n n n n 2 2 2 2 2 n n J G J J J H A 2.2.2.2.2.2.2.2.2.,.2.2.5.6.1.5.5.1.>.#.>.#.:.:.G G i G L ..x k j | ",
"h.A.M.M.M.M.V.i.a.f.s.e.} } ] } { { ] ] ] ] { ] ] a.u.a.B.b.z.v.z.c.v.b.c.c.n.n.n.n.m.m.b.n.b.x.c.x.x.c.x.=.*.] [ S &.>.x k k a ",
"h.V.M.M.c.M.V.M.V.a.a.p.] ] ] ] { ~ Q Q ] ] ] ] u.u.u.n.v.v.x.x.c.x.x.c.c.z.c.z.n.c.c.n.c.x.b.b.b.b.k.k.=.*.Q ~ Q D 6 W x g y * ",
"h.A.M.M.b.c.M.M.j.M.a.u.u.=.~ } Q D D Q ~ ] a.=.=.u.v.v.x.v.x.c.b.x.9.0.b.c.z.c.x.0.9.c.9.0.x.x.b.b.b.b.=.=.=.Q D D 7 W p r # * ",
"h.A.M.b.k.b.b.j.h.j.k.k.k.=.*.*.&.D D D Q *.=.=.k.k.k.k.k.k.k.k.k.0.>.2.9.h.0.0.3.5.3.0.5.3.5.3.9.0.0.0.0.&.&.&.&.D 7 3 p y O * ",
"h.V.b.M.k.j.k.9.9.h.k.k.k.k.k.9.&.' D M D *.k.k.k.k.k.k.k.k.k.k.0.3.>.>.>.>.0.3.3.3.h.0.3.5.3.5.3.2.0.h.0.0.0.&.W _ 9 3 # + O * ",
"9.A.b.b.M.k.k.k.*.*.k.k.3.3.h.2.3.' I D ' ' 0.k.9.0.0.0.k.k.0.0.3.>.0.0.0.3.>.>.h.0.0.0.h.3.3.3.0.0.0.3.3.3.h.0.W P 3 3 % @ + & ",
"9.M.b.b.b.k.k.*.*.*.&.h.h.3.3.3.6.' ' &.' 3.0.h.9.0.0.0.0.0.3.0.h.&.&.=.&.0.h.3.>.0.0.0.h.3.0.0.0.&.3.5.3.5.3.&.T P 3 3 % + + & ",
"0.v.n.n.k.0.&.&.D D N W 3.2.3.9.k.k.&.*.' 3.3.h.k.k.0.3.0.0.h.0.=.=.=.Q Q *.j.9.0.2.,.h.0.0.0.0.0.0.&._ 3.3.W P P 6 6 3 @ @ + & ",
"4.v.n.k.0.p.&.` N D D _ 9.h.9.h.k.k.=.*.h.3.3.3.0.k.k.9.0.0.9.&.&.&.Q Q ! *.*.k.k.0.9.0.0.0.0.0.0.9.&.D W >.P 6 7 6 3 3 @ + + * ",
"4.v.k.0.0.0.3.&.N 6 N &.k.k.k.k.k.k.=.k.0.0.3.3.3.a.h.h.0.0.' &.6 D D D =.*.=.k.k.k.k.k.0.0.0.0.0.0.3.W W T P 6 6 6 3 3 @ @ + * ",
":.k.0.0.5.5.h.&._ D D *.k.k.k.k.k.k.&.0.0.0.h.0.5.5.&.&.&.' D M D D &.' &.=.k.k.k.k.k.k.k.k.k.0.f.1.>.>.T 7 D 9 6 6 3 3 @ + + * ",
"+.0.4.>.>.2.>.3.&.D D &.k.k.h.9.0.0.2.5.0.a.&.&.o.' ' D D M M M D ' &.&.0.0.0.0.2.3.5.3.5.3.0.0.9.3.R R P D Q D D 6 6 3 @ + @ * ",
"4.k.0.4.>.,.>.>.' ' D &.k.9.h.3.5.2.0.0.0.&.&.D S D D D M D D D &.&.0.a.0.0.0.9.3.5.3.3.3.5.0.h.9.&.' P D Q Q Q 4 6 P K @ X y * ",
"4.B.0.0.3.6.2.,.>.I ' &.9.h.3.3.2.0.k.k.=.&.D D D D _ &.&._ ' ' ' 3.5.3.5.5.5.5.5.3.h.0.h.0.h.3.' &.&.D D D ~ D 6 6 P J i < < V ",
"4.B.k.0.3.3.3.3.>.>.T &.9.3.9.h.0.k.=.*.! ! D D D D &.&.0.9.' &.3.5.3.5.5.2.2.5.3.5.0.k.0.3.3.U P ' D &.&.' ~ D 7 U I J k f > i ",
"1.B.v.k.4.4.4.4.6.2.6.2.6.0.k.k.=.=.D D E ` ` ` o.&.R 3.0.0.0.0.9.5.5.5.0.0.p.h.h.h.k.k.3.>.>.R 6 n D &.0.=.Q Q 9 ) ) $.j w 0 a ",
"<.B.c.k.4.4.4.4.2.6.2.6.6.2.0.=.*.D D ` ` ` 3.3.5.5.0.0.0.k.k.k.k.k.k.k.k.0.0.h.k.k.k.3.,.>.>.R P 7 7 _ k.=.*.' ) ' $.+.j w w c ",
"1.n.p.=.k.3.4.4.2.3.6.3.2.2.' ' D D ` ` o.5.3.5.0.0.k.k.k.k.k.k.k.k.k.k.k.k.k.k.k.k.k.6.>.>.,.3.' M 7 P 5.k.&.&.W 3.:.$.z w h c ",
"1.n.a.=.*.o.&.4.2.2.2.6.&.' ' ' ` E E ` 2.5.0.a.k.k.k.k.k.k.k.k.k.k.k.k.k.k.k.k.k.k.3.>.>.2.3.h.&.&.D &.k.k.&.&.3.$.$.+.z w h P ",
"3.m.*.Q ! S 6 E 0.0.0.2.2.3.2.W W &.0.2.3.:.>.3.5.9.9.k.k.k.k.k.k.k.k.k.k.k.k.3.3.3.,.>.,.3.3.9.9.&.D ' 9.k.' 5.1.:.>.$.z f h ..",
"2.m.=.Q D m D &.0.k.k.0.0.2.2.0.h.k.0.0.,.2.:.:.,.5.5.9.a.3.k.k.k.k.0.0.3.3.6.3.>.>.2.>.3.3.h.0.0.&.' W 3.0.' 3.:.$.2.$.c f f ..",
"2.z.x.r.` ` ` 6.6.2.6.0.k.0.k.k.0.0.2.>.>.>.2.:.0.0.0.0.h.0.3.3.4.4.5.4.3.6.3.6.6.3.>.3.h.9.3.3.1.5.R ' 3.0.0.0.$.>.$.+.z f h ..",
"3.z.x.3.` ` 3.3.2.6.2.3.0.0.0.a.3.1.2.>.1.>.,.U &.0.0.0.0.0.0.0.4.4.4.4.3.6.3.3.3.3.3.h.h.i.9.3.2.3.' ' 0.0.3.<.>.$.+.+.c z w c ",
"2.c.k.3.<.3.<.3.<.3.3.3.1.3.1.3.1.3.P W >.>.E I T I T >.>.<.>.<.1.2._ E _ E 3.>.2.>.>.2.>.>.#.#.>.>.$.P ,.$.2.2.$.>.+.+.c j w a ",
"#.z.3.>.3.3.3.<.3.<.3.6.3.1.3.1.3.W T T E :.I E 7 6 P T $.>.<.>.3.X._ R E _ W T P 2.2.>.#.#.#.#.+.#.>.P >.>.2.>.>.$.+.+.c f j a ",
"#.c.2.;.,.:.<.3.3.3.3.6.3.5.1.>.E 6 W W P P $.I 2 4 6 P $.$.$.#.T L E 9 m m 9 E I I >.X.X.X.X.X.X.#.P P >.,.>.>.$.+.+.+.x f a a ",
"#.3.>.;.:.:.:.:.,.,.3.3.>.1.>.<.W 4 4 6 P P I I P 6 6 P P $.I P P T 4 4 T T Y 6 Z Z Z X.X.X.X.X.X.X.P W W U :.+.+.+.+.+.p r y * ",
"z j j j j j j j j j j j j j j i u @ @ @ @ @ @ @ @ @ @ @ u u u u @ @ @ y k j j y @ % p y c c c c c c k p % % y p c h y a p + + # ",
"f s 0 0 0 0 > 0 0 0 > 0 0 0 0 > >   . . . . . . .   . . .               > 0 0 q > > O e f f f h w s s s < < + X < < o X . . r y ",
"h h f f f d < , d t , , f d , , < + o o @ + + + + + @ @ @ @ . o O O O X O < s j k p % a k h h h h h y e < + O + + + X X X r r f ",
"c c c c c V V V V V i a c V V i $ $ & & @ - & & $ & V V a u u a i % * % * * V L ....a V ..c c ..V V * * * $ # $ # : & & a a z k ",
"2.9.p.3.U U U U A U U U U U U n n n n n n n n n n B L a a y h c &.o.' S S S S J 2.9.9.P 3.h.3.J H L b b n n n U n 2 1 1 U 0.0.0.",
"c.N.p.p.u.} } q.q.} } } } } } } e.q.q.e.q.q.e.e.{ a.a.u.z h h c j.S.g.k.s.w.e.f.A.A.A.a.M.n.M.=.=.~ } =.e.} e.d.=.=.] r.=.B.A.B.",
"c.b.b.c.c.u.3.q.} / ( ( ( } } / } ] ] } q.} } q.{ t.v.$.x g g ..j.S.S.B.a.w.w.] u.n.m.v.b.M.=.=.r.] / / ] =.a.-.c.=.=.=.z.z.v.n.",
"k.j.k.k.k.k.=.( ( ( ( / / / ( ( Q Q Q Q Q Q ! u.t.u.U >.x f j x j.S.B.a.a.a.[ ] } u.=.c.=.r.=.r.Q Q ! ! ~ =.k.k.k.z.=.=.k.k.k.k.",
"3.3.3.5.5.3.5.&.D D D D N N N N 7 7 8 7 9 7 7 &.v.0.>.$.j f f | j.S.a.u.*.*.*.*.Q Q Q *.Q Q Q D D 9 D ' ' 3.5.2.3.0.&.0.3.5.2.5.",
"3.3.5.3.h.h.0.&._ &.D D N N 8 8 7 7 n 7 D D D D =.0.1.>.h f s x j.g.a.u.k.k.*.*.*.Q Q Q D D D D D D ' ' 3.3.5.5.0.0.&.3.5.2.5.3.",
"3.3.h.0.3.3.3.3.&._ T m 8 8 b m 7 7 7 D D D D D D W 3.>.z w w z j.a.a.n.k.k.k.*.*.*.Q D D D D D D D ' 3.3.5.9.0.0.3.3.5.3.5.3.5.",
"3.0.0.0.p.h.3.3.2.>.T T m 6 9 6 7 7 ' _ D D &.&.9 M R 1.g w w j &.B.b.c.k.k.k.k.&.&.D D D D D D D D ' &.' a.0.0.0.5.5.3.5.3.5.3.",
"h.h.3.3.k.k.k.h.3.3.3.Y n 6 N 6 n ` 5.4.&.=.=.&.W W D W j w w z j.B.m.c.k.0.0.0.0.&.&.&.*.Q D D D D D D Q *.0.0.3.5.3.5.3.5.3.0.",
"0.9.k.k.k.k.k.k.0.5.5.&.T 9 N N ' 3.5.p.k.k.k.k.' W K 7 z w s L 2.M.x.c.0.0.0.0.0.0.k.k.*.Q Q Q D D Q Q Q Q *.0.5.3.5.3.5.3.0.0.",
"k.k.k.k.k.k.k.k.h.3.3.o._ 9 N N &.i.h.k.k.k.k.k.1.W P W z f f c 2.B.c.n.k.0.0.h.k.k.k.0.&.D D D D D &.Q Q Q =.*.0.0.3.5.0.0.0.0.",
"k.k.k.k.k.k.k.k.k.0.3.4.` N D &.k.k.k.k.k.k.k.0.>.>.W W z f h ..2.M.c.c.k.k.k.k.k.k.0.3.P P P D D D &.' Q Q Q Q =.0.0.0.0.0.0.0.",
"0.0.k.k.k.k.k.0.0.0.0.0.&.M ! *.k.k.0.0.0.0.0.0.>.2.$.E z f h c f.C.m.c.0.0.k.k.0.3.>.>.>.R U T &.&.0.&.D D D D =.k.k.k.k.k.k.k.",
"0.0.0.0.k.k.0.0.0.0.k.k.*.Q Q *.0.0.0.8.0.0.4.4.>.1.$.R z g h ..9.c.m.c.0.0.3.h.3.,.2.>.>.>.T R 5.a.0.&.&.D D D &.0.k.k.k.k.k.0.",
"3.3.0.0.h.h.0.0.0.0.0.p.&.! ~ =.k.k.k.k.0.4.4.4.>.$.$.$.z f h c 9.m.C.n.k.3.>.>.,.>.>.>.>.2.2.3.5.2.5.&.' ' &.D D &.0.0.5.3.5.3.",
"5.3.0.0.9.3.3.3.0.0.0.&.&.S ~ =.k.=.=.0.0.0.0.4.>.$.>.#.z f f c 9.m.C.m.k.k.0.3.3.>.2.>.3.3.0.0.5.5.5.2.' ' ' W D &.&.5.3.5.3.5.",
"3.5.3.5.3.5.3.5.3.5.&.=.=.Q Q Q *.Q D ' a.5.5.3.$.$.+.$.z w w z 0.m.k.n.k.5.5.5.5.5.3.3.0.0.0.0.9.0.5.5._ &.3.' D M ` 3.3.6.3.3.",
"5.3.5.3.5.3.5.3.3.&._ &.Q Q Q Q D D D D R &.3.5.1.$.+.$.p w 0 z 1.x.x.n.5.1.5.5.5.5.a.0.0.3.0.0.9.0.9.9._ &.3.' ' N ' 3.3.3.3.6.",
"h.h.3.5.3.5.3.3.&.&.&.S D D Q &.D D ' ' D D ' 3.>.:.O.O.y < w c 1.x.x.n.5.1.0.0.9.k.k.k.0.0.0.0.5.2.5.5.o.3.2.5.' N ` ` 5.5.3.a.",
"9.3.5.3.5.3.5.3.&.&.&.D D &.&.&.` ` ' ' D D ' 0.$.$.O.O.y X > c 1.x.x.x.k.5.0.0.0.9.0.k.k.k.0.0.5.5.5.2.&.9.5.5.' ' N ` 0.0.0.h.",
"3.>.2.>.3.h.0.0.a.' &.&.&.&.3.' ' ' 3.' ' ' D ' :.O.O.O.y X < a 1.x.x.x.k.k.0.0.0.0.0.0.0.0.0.k.k.9.5.5.2.0.0.0.6.' S _ 0.0.0.0.",
">.2.>.>.>.3.0.9.a.3.' &.&._ 6.3.' ' 3.' P P 6 ' >.$.O.G p X + a 1.m.x.x.k.k.k.k.0.0.0.0.0.0.k.k.k.k.9.5.5.5.0.0.a.' ' *.k.>.>.0.",
"3.3.>.3.3.0.0.h.5.5.' 3.&.&.3.3.' 5.>.W >.>.P W :.O.O.G @ @ $ a G z.x.x.k.k.k.k.k.k.k.k.0.0.0.k.k.k.k.9.9.5.2.9.k.k.=.2.,.,.,.,.",
"h.9.3.h.h.0.0.3.5.5.6.3.' &.3.6.W >.>.P #.>.' ' $.O.O.G $ + $ * G 1.x.x.k.k.k.k.k.k.0.0.0.0.0.0.k.k.k.k.k.k.0.5.h.k.U ,.,.,.,.,.",
"3.3.9.i.3.6.9.3.4.X.>.<.T 3.3.<.>.:.#.G >.2.&.3.$.$.+.G & @ + ; : =.=.&.T P >.:.3.5.3.5.3.5.W <.>.:.>.1.2.>.>.:.>.3.L $.:.:.$.$.",
">.3.3.3.3.#.#.#.>.T <.>.T >.#.>.$.+.+.P ,.3.5.5.>.#.#.G @ + X ; a &.&.L >.:.$.>.3.3.5.3.5.3.W 2.2.2.>.>.:.:.2.2.>.>.>.#.$.$.$.:.",
"+.+.O.O.#.#.#.#.T U #.#.G +.+.+.+.#.>.>.3.3.3.3.,.$.#.G & X X ; y &.U @.@.+.2.2.1.3.1.3.>.>.E W :.:.#.$.#.#.#.#.+.O.O.O.O.O.O.O.",
"+.+.+.+.+.+.+.+.L 4 G +.+.+.>.<.:.>.2.2.3.3.3.3.#.>.O.P + X + & # U +.@.@.@.3.3.3.1.3.3.>.>.I 7 P :.#.P P I :.#.O.O.O.O.O.O.O.O.",
"k k k k c k c i p % p p k k k k z z k k z k z k z h k y y X + & p z j j k j z j z j z j z c j a y a y y y y y y j j j j j j j j ",
"s s s h f w q < X . > > > < w s w q q w w w w q q q 0 q > + + + < f q q q q q q 0 w f f w w w w < X X X . + @   > 0 0 0 0 d 0 0 ",
"d j k k h h e e O O O @ @ y y e f f f h h s w w w w f h y @ @ @ y h j h f g f f w h z c h h < t < @ @ j @ @ @ @ @ y y j j j j g ",
"c c ..p V V V & & * * * * * * V a a a w w x z z z w c c V & $ a c c c c c c c c c ....C C Z ; * * ; w w & & & & a p a p p a c x "
};
